<svg width="33" height="33" viewBox="0 0 33 33" fill="none" xmlns="http://www.w3.org/2000/svg">
<path fill-rule="evenodd" clip-rule="evenodd" d="M28.0385 0.568047C27.8933 0.99499 27.7221 1.25481 27.4018 1.5705L27.1425 1.82872L26.8616 2.10343L26.5721 2.39071C26.2664 2.6938 25.9596 2.99575 25.6528 3.29761C25.348 3.59847 25.0435 3.89957 24.7393 4.20097C24.5502 4.38831 24.3606 4.5753 24.1707 4.76189C23.638 5.28808 23.1346 5.82937 22.6482 6.39845C22.4882 6.57531 22.3278 6.75184 22.1669 6.92786C21.7385 7.40257 21.3318 7.89135 20.9297 8.38847C20.6978 8.6722 20.462 8.95165 20.2237 9.23001C19.5745 9.98918 18.9543 10.7674 18.3579 11.5688L18.1991 11.7821C16.6138 13.9221 15.0604 16.117 13.9001 18.5206C13.7983 18.7316 13.6958 18.9422 13.5932 19.1528C13.4572 19.4323 13.3241 19.7131 13.1926 19.9948L13.004 20.3853L12.8381 20.7372C12.5437 21.1661 12.1886 21.3142 11.6887 21.4214C11.384 21.3492 11.2994 21.2129 11.1533 20.9777L11.1533 20.9777C11.1383 20.9536 11.1227 20.9284 11.1061 20.9022C10.8903 20.5336 10.6989 20.1556 10.513 19.7712L10.389 19.5295L10.2736 19.2904L10.1686 19.0779C10.0203 18.4765 10.2555 17.9021 10.4822 17.3485L10.5186 17.2595C10.8707 16.3576 11.1331 15.4417 11.379 14.5059C11.4483 14.2422 11.5189 13.9788 11.5896 13.7155C11.8484 12.7473 12.0908 11.7773 12.3075 10.7988C10.496 13.4861 8.7992 16.2013 7.24712 19.0493L7.04907 19.4124L7.04905 19.4124L7.04902 19.4125C6.29181 20.7973 6.2918 20.7973 5.55575 22.1936C5.1904 22.9004 4.84355 23.543 4.27691 24.1097H4.16691L4.13038 23.8518C4.0379 23.2443 3.92964 22.6905 3.69723 22.1218C3.41108 21.3659 3.22862 20.5375 3.558 19.7777C3.8723 19.1711 4.26066 18.6087 4.64843 18.0471L4.64876 18.0466C4.70596 17.9637 4.76315 17.8809 4.82008 17.798L5.10377 17.3822C5.72675 16.4712 6.36405 15.5716 7.01507 14.6804C7.39513 14.1592 7.76492 13.631 8.13406 13.102L8.32947 12.8221L8.71288 12.2727C9.50301 11.1416 10.302 10.0173 11.1123 8.90061C11.4687 8.4088 11.8197 7.91373 12.1672 7.41564C13.5985 5.36589 13.9261 4.89682 14.3745 4.63387C14.5076 4.55584 14.6513 4.49596 14.8376 4.41831C15.6375 4.38441 16.2437 4.56824 16.9278 4.96835C16.9919 5.68902 16.7709 6.2443 16.5089 6.90218L16.4878 6.95536L16.2132 7.66869L16.0727 8.0303C15.3417 9.91645 14.7325 11.8237 14.1776 13.769C15.1558 12.5133 16.131 11.2555 17.0988 9.99174C17.6568 9.26383 18.2214 8.54193 18.7979 7.82855L19.0179 7.93855H19.1279C19.3332 7.70726 19.5339 7.47386 19.733 7.23726C20.2155 6.66881 20.7035 6.10705 21.2052 5.55534C21.3573 5.38756 21.508 5.21858 21.6573 5.04828C22.4054 4.1985 23.2096 3.4045 24.0148 2.60953L24.1883 2.43818C24.1883 2.81053 24.1397 2.86129 23.9103 3.10092L23.8755 3.13733L23.6799 3.34466L23.4732 3.55888L23.2665 3.77696C23.0978 3.95478 22.9283 4.13185 22.7582 4.3083C23.388 3.81389 23.9338 3.27097 24.4564 2.66507C25.276 1.71784 25.4838 1.47768 25.7461 1.34691C25.8352 1.30249 25.9306 1.27069 26.0584 1.22809C25.8959 1.60784 25.6802 1.84959 25.3846 2.13566L25.1431 2.37114L24.9583 2.54818C25.4938 2.13856 25.9439 1.66677 26.4083 1.17988L26.4086 1.17953C26.924 0.711307 27.3415 0.518255 28.0385 0.568047ZM23.7483 3.75827L23.5282 4.1983L23.8583 3.97828L23.7483 3.75827ZM22.5382 4.52832L22.0981 4.96835L22.2081 5.18836L22.6482 4.74833L22.5382 4.52832ZM22.5382 5.29837L22.8682 5.07836L22.7582 4.85834L22.5382 5.29837ZM30.2325 9.0188H30.5625C30.4036 9.46908 30.1832 9.82327 29.9081 10.2126L29.653 10.5787C29.5195 10.7692 29.3856 10.9595 29.251 11.1493C29.1207 11.3337 28.9918 11.519 28.863 11.7045L28.6281 12.0378L28.4724 12.319L28.5824 12.649C28.2593 13.4398 27.7481 14.1631 27.2522 14.8647L27.2521 14.8648C27.1793 14.9677 27.1069 15.0702 27.0354 15.1723L26.804 15.5103L26.5778 15.8354L26.3758 16.1263C26.272 16.2541 26.2186 16.3199 26.1588 16.3791C26.0957 16.4416 26.0253 16.497 25.8805 16.6108C25.5929 16.8451 25.4699 17.031 25.3045 17.36L25.145 17.6721L24.9797 18.005C24.8619 18.2376 24.744 18.47 24.626 18.7025L24.4524 19.0466C24.321 19.3032 24.1857 19.5558 24.0442 19.8068C23.3172 21.1006 22.7454 22.4695 22.174 23.8373L22.174 23.8374C22.0952 24.0259 22.0165 24.2143 21.9373 24.4026C21.7506 24.8468 21.5619 25.29 21.3696 25.7318C20.915 26.7801 20.537 27.8316 20.2218 28.9302C19.5311 28.8066 18.846 28.6123 18.3036 28.1532C17.614 26.8569 17.7422 25.5914 18.0904 24.217L18.1792 23.8534C18.2722 23.4735 18.3669 23.0941 18.4617 22.7147C18.5562 22.3321 18.6503 21.9494 18.7442 21.5667C18.8026 21.3293 18.8613 21.0921 18.9205 20.8549L19.0006 20.532L19.0716 20.2474C19.1012 20.1329 19.1157 20.0767 19.1217 20.0196C19.1276 19.9647 19.1256 19.9089 19.1218 19.7995L19.0316 19.9732C18.8877 20.2501 18.7435 20.5267 18.5992 20.8034L18.4334 21.122C18.1626 21.6399 17.8888 22.155 17.5993 22.6627C16.0443 25.4009 14.288 28.6657 13.8302 31.814C13.7044 32.2039 13.5159 32.3358 13.1813 32.5604C13.0972 32.5343 13.0486 32.5192 13.0024 32.4986C12.9391 32.4704 12.8805 32.4318 12.7413 32.3404C12.4973 31.8704 12.3653 31.4349 12.3013 30.9103L12.0469 30.8759C11.7239 30.7933 11.6358 30.7142 11.4212 30.4703L11.0912 30.2503C10.9819 29.3841 11.2465 28.8069 11.6348 28.0445L11.8063 27.6964C11.99 27.3251 12.1765 26.9554 12.3632 26.5856C12.4903 26.3307 12.6173 26.0756 12.7441 25.8206C13.9502 23.4038 15.1912 21.0104 16.5916 18.6995L16.9354 18.1288L17.0879 17.877C17.2538 17.5957 17.4126 17.3109 17.5712 17.0256C17.9631 16.3249 18.3828 15.6831 18.9017 15.0692L19.2189 14.6911C19.515 14.3391 19.813 13.9888 20.1118 13.6391L20.4418 13.7491L19.6718 15.2892C20.3475 14.3924 20.9194 13.5417 21.2944 12.4772C21.6063 11.5994 21.7166 11.2889 21.9298 11.0873C22.0465 10.977 22.1939 10.8992 22.422 10.7789C22.752 10.7789 22.8997 10.8528 23.1874 10.9966L23.192 10.9989L23.3295 10.8408C23.5516 10.6426 23.6635 10.568 23.9621 10.5589C24.0838 10.6378 24.1473 10.679 24.2007 10.7306C24.259 10.7868 24.3053 10.8555 24.4021 10.9989C24.3584 11.5439 24.2225 12.0338 24.0509 12.5511L23.9771 12.7753C23.8972 13.0176 23.8164 13.2596 23.7356 13.5016L23.5675 14.0107C23.4204 14.4562 23.2725 14.9015 23.1245 15.3467C22.9164 15.9728 22.7093 16.5992 22.5022 17.2256L22.4166 17.4845C22.3345 17.7324 22.2522 17.9802 22.1698 18.228L22.0174 18.6874L21.8837 19.0898C21.7614 19.4713 21.6498 19.8538 21.5419 20.2396L21.6606 20.0356C22.1336 19.2231 22.6075 18.411 23.082 17.5994L23.2847 17.2528C23.4735 16.9304 23.6627 16.6082 23.8521 16.2862L24.0236 15.9931C24.2958 15.5312 24.5736 15.0733 24.8628 14.6219L25.0188 14.3776C25.0828 14.2989 25.1201 14.2531 25.1659 14.2184C25.2297 14.17 25.3099 14.1432 25.5022 14.0791C25.6894 13.8306 25.8616 13.5828 26.0316 13.3228C26.51 12.6086 27.005 11.9097 27.5167 11.219L27.7081 10.9603C27.8297 10.7963 27.9516 10.6326 28.0739 10.4691C28.1964 10.3042 28.3175 10.1383 28.4373 9.97148L28.6146 9.72697L28.7724 9.50653L28.9124 9.34882H29.1324C28.9841 9.75129 28.8023 10.0951 28.5695 10.4549L28.3671 10.7699L28.1561 11.0952C27.7321 11.7517 27.3113 12.4054 26.9323 13.0891L27.0444 12.9335C27.8818 11.7714 28.7234 10.6125 29.5725 9.45883L29.9025 9.56884L30.0469 9.29382L30.2325 9.0188ZM21.4327 11.439H21.2127L21.0026 11.7007L20.7658 12.0509C20.4205 12.5511 20.2725 12.9215 20.2227 13.5291H20.3327C20.4538 13.3872 20.574 13.2445 20.6889 13.0975L20.8277 12.9172C21.2214 12.4182 21.3877 12.0762 21.4327 11.439Z" fill="white"/>
</svg>
