<svg width="32" height="33" viewBox="0 0 32 33" fill="none" xmlns="http://www.w3.org/2000/svg">
<path fill-rule="evenodd" clip-rule="evenodd" d="M27.0659 0.568047C26.9206 0.99499 26.7494 1.25481 26.4292 1.5705L26.1698 1.82872L25.8889 2.10343L25.5994 2.39071C25.2937 2.6938 24.987 2.99575 24.6801 3.29761C24.3754 3.59847 24.0709 3.89957 23.7667 4.20097C23.5775 4.38831 23.388 4.5753 23.1981 4.76189C22.6653 5.28808 22.1619 5.82937 21.6755 6.39845C21.5155 6.57531 21.3552 6.75184 21.1942 6.92786C20.7658 7.40257 20.3591 7.89135 19.9571 8.38847C19.7251 8.6722 19.4893 8.95165 19.2511 9.23001C18.6018 9.98918 17.9816 10.7674 17.3852 11.5688L17.2264 11.7821C15.6412 13.9221 14.0877 16.117 12.9274 18.5206C12.8256 18.7316 12.7231 18.9422 12.6206 19.1528C12.4845 19.4323 12.3514 19.7131 12.22 19.9948L12.0314 20.3853L11.8654 20.7372C11.571 21.1661 11.2159 21.3142 10.716 21.4214C10.4114 21.3492 10.3267 21.2129 10.1806 20.9777L10.1806 20.9777C10.1656 20.9536 10.15 20.9284 10.1334 20.9022C9.91764 20.5336 9.7262 20.1556 9.54031 19.7712L9.41634 19.5295L9.30096 19.2904L9.19597 19.0779C9.04766 18.4765 9.28284 17.9021 9.50954 17.3485L9.5459 17.2595C9.89801 16.3576 10.1605 15.4417 10.4064 14.5059C10.4757 14.2422 10.5462 13.9788 10.617 13.7155C10.8757 12.7473 11.1182 11.7773 11.3348 10.7988C9.52335 13.4861 7.82655 16.2013 6.27446 19.0493L6.07642 19.4124L6.0764 19.4124L6.07636 19.4125C5.31916 20.7973 5.31914 20.7973 4.5831 22.1936C4.21775 22.9004 3.8709 23.543 3.30426 24.1097H3.19425L3.15772 23.8518C3.06524 23.2443 2.95699 22.6905 2.72457 22.1218C2.43842 21.3659 2.25596 20.5375 2.58534 19.7777C2.89965 19.1711 3.288 18.6087 3.67578 18.0471L3.67611 18.0466C3.73331 17.9637 3.79049 17.8809 3.84742 17.798L4.13111 17.3822C4.7541 16.4712 5.39139 15.5716 6.04242 14.6804C6.42248 14.1592 6.79226 13.631 7.1614 13.102L7.35681 12.8221L7.74023 12.2727C8.53035 11.1416 9.32938 10.0173 10.1397 8.90061C10.496 8.4088 10.8471 7.91373 11.1945 7.41564C12.6259 5.36589 12.9534 4.89682 13.4018 4.63387C13.5349 4.55584 13.6786 4.49596 13.865 4.41831C14.6648 4.38441 15.2711 4.56824 15.9551 4.96835C16.0193 5.68902 15.7982 6.2443 15.5363 6.90218L15.5151 6.95536L15.2405 7.66869L15.1 8.0303C14.369 9.91645 13.7598 11.8237 13.2049 13.769C14.1831 12.5133 15.1584 11.2555 16.1262 9.99174C16.6841 9.26383 17.2488 8.54193 17.8253 7.82855L18.0453 7.93855H18.1553C18.3606 7.70726 18.5613 7.47386 18.7603 7.23726C19.2428 6.66881 19.7308 6.10705 20.2325 5.55534C20.3846 5.38756 20.5354 5.21858 20.6846 5.04828C21.4327 4.1985 22.2369 3.4045 23.0421 2.60953L23.2156 2.43818C23.2156 2.81053 23.167 2.86129 22.9376 3.10092L22.9028 3.13733L22.7073 3.34466L22.5006 3.55888L22.2939 3.77696C22.1252 3.95478 21.9557 4.13185 21.7855 4.3083C22.4154 3.81389 22.9612 3.27097 23.4838 2.66507C24.3033 1.71784 24.5111 1.47768 24.7735 1.34691C24.8626 1.30249 24.958 1.27069 25.0858 1.22809C24.9233 1.60784 24.7076 1.84959 24.412 2.13566L24.1705 2.37114L23.9857 2.54818C24.5212 2.13856 24.9712 1.66677 25.4356 1.17988L25.436 1.17953C25.9514 0.711307 26.3688 0.518255 27.0659 0.568047ZM22.7756 3.75827L22.5556 4.1983L22.8856 3.97828L22.7756 3.75827ZM21.5655 4.52832L21.1255 4.96835L21.2355 5.18836L21.6755 4.74833L21.5655 4.52832ZM21.5655 5.29837L21.8955 5.07836L21.7855 4.85834L21.5655 5.29837ZM29.2599 9.0188H29.5899C29.431 9.46908 29.2105 9.82327 28.9354 10.2126L28.6804 10.5787C28.5468 10.7692 28.4129 10.9595 28.2784 11.1493C28.148 11.3337 28.0191 11.519 27.8904 11.7045L27.6554 12.0378L27.4997 12.319L27.6097 12.649C27.2867 13.4398 26.7754 14.1631 26.2795 14.8647L26.2794 14.8648C26.2066 14.9677 26.1342 15.0702 26.0628 15.1723L25.8314 15.5103L25.6051 15.8354L25.4031 16.1263C25.2993 16.2541 25.246 16.3199 25.1862 16.3791C25.123 16.4416 25.0526 16.497 24.9078 16.6108C24.6202 16.8451 24.4972 17.031 24.3319 17.36L24.1723 17.6721L24.007 18.005C23.8892 18.2376 23.7713 18.47 23.6533 18.7025L23.4798 19.0466C23.3483 19.3032 23.2131 19.5558 23.0715 19.8068C22.3446 21.1006 21.7727 22.4695 21.2013 23.8373L21.2013 23.8374C21.1226 24.0259 21.0438 24.2143 20.9647 24.4026C20.778 24.8468 20.5893 25.29 20.3969 25.7318C19.9423 26.7801 19.5644 27.8316 19.2492 28.9302C18.5585 28.8066 17.8734 28.6123 17.3309 28.1532C16.6414 26.8569 16.7695 25.5914 17.1178 24.217L17.2066 23.8534C17.2995 23.4735 17.3942 23.0941 17.4891 22.7147C17.5835 22.3321 17.6776 21.9494 17.7715 21.5667C17.8299 21.3293 17.8887 21.0921 17.9478 20.8549L18.0279 20.532L18.099 20.2474C18.1285 20.1329 18.143 20.0767 18.1491 20.0196C18.1549 19.9647 18.153 19.9089 18.1491 19.7995L18.059 19.9732C17.9151 20.2501 17.7708 20.5267 17.6266 20.8034L17.4608 21.122C17.19 21.6399 16.9161 22.155 16.6266 22.6627C15.0717 25.4009 13.3154 28.6657 12.8576 31.814C12.7318 32.2039 12.5432 32.3358 12.2087 32.5604C12.1246 32.5343 12.076 32.5192 12.0298 32.4986C11.9665 32.4704 11.9078 32.4318 11.7687 32.3404C11.5246 31.8704 11.3926 31.4349 11.3286 30.9103L11.0742 30.8759C10.7512 30.7933 10.6632 30.7142 10.4486 30.4703L10.1185 30.2503C10.0093 29.3841 10.2739 28.8069 10.6621 28.0445L10.8337 27.6964C11.0173 27.3251 11.2038 26.9554 11.3905 26.5856C11.5176 26.3307 11.6446 26.0756 11.7715 25.8206C12.9775 23.4038 14.2186 21.0104 15.6189 18.6995L15.9627 18.1288L16.1152 17.877C16.2811 17.5957 16.4399 17.3109 16.5985 17.0256C16.9904 16.3249 17.4101 15.6831 17.9291 15.0692L18.2462 14.6911C18.5423 14.3391 18.8403 13.9888 19.1392 13.6391L19.4692 13.7491L18.6991 15.2892C19.3748 14.3924 19.9468 13.5417 20.3217 12.4772C20.6337 11.5994 20.744 11.2889 20.9572 11.0873C21.0738 10.977 21.2212 10.8992 21.4493 10.7789C21.7794 10.7789 21.9271 10.8528 22.2147 10.9966L22.2194 10.9989L22.3569 10.8408C22.5789 10.6426 22.6908 10.568 22.9894 10.5589C23.1111 10.6378 23.1746 10.679 23.228 10.7306C23.2863 10.7868 23.3326 10.8555 23.4295 10.9989C23.3858 11.5439 23.2498 12.0338 23.0782 12.5511L23.0044 12.7753C22.9245 13.0176 22.8438 13.2596 22.763 13.5016L22.5948 14.0107C22.4477 14.4562 22.2999 14.9015 22.1518 15.3467C21.9438 15.9728 21.7367 16.5992 21.5295 17.2256L21.4439 17.4845C21.3619 17.7324 21.2795 17.9802 21.1972 18.228L21.0448 18.6874L20.9111 19.0898C20.7887 19.4713 20.6772 19.8538 20.5693 20.2396L20.6879 20.0356C21.1609 19.2231 21.6348 18.411 22.1094 17.5994L22.312 17.2528C22.5008 16.9304 22.69 16.6082 22.8794 16.2862L23.051 15.9931C23.3232 15.5312 23.601 15.0733 23.8901 14.6219L24.0461 14.3776C24.1101 14.2989 24.1475 14.2531 24.1932 14.2184C24.257 14.17 24.3373 14.1432 24.5295 14.0791C24.7168 13.8306 24.889 13.5828 25.0589 13.3228C25.5373 12.6086 26.0323 11.9097 26.5441 11.219L26.7354 10.9603C26.857 10.7963 26.9789 10.6326 27.1012 10.4691C27.2237 10.3042 27.3448 10.1383 27.4647 9.97148L27.642 9.72697L27.7998 9.50653L27.9398 9.34882H28.1598C28.0114 9.75129 27.8297 10.0951 27.5969 10.4549L27.3945 10.7699L27.1835 11.0952C26.7595 11.7517 26.3386 12.4054 25.9596 13.0891L26.0717 12.9335C26.9092 11.7714 27.7507 10.6125 28.5998 9.45883L28.9298 9.56884L29.0742 9.29382L29.2599 9.0188ZM20.4601 11.439H20.2401L20.0299 11.7007L19.7932 12.0509C19.4478 12.5511 19.2998 12.9215 19.25 13.5291H19.36C19.4811 13.3872 19.6014 13.2445 19.7162 13.0975L19.855 12.9172C20.2487 12.4182 20.4151 12.0762 20.4601 11.439Z" fill="#010101"/>
</svg>
