<svg width="242" height="178" viewBox="0 0 242 178" fill="none" xmlns="http://www.w3.org/2000/svg">
<g clip-path="url(#clip0_50_50)">
<path d="M143.328 0C143.807 0 144.286 0 144.78 0C144.78 0.319427 144.78 0.638854 144.78 0.96796C145.26 0.96796 145.739 0.96796 146.233 0.96796C146.233 1.28739 146.233 1.60681 146.233 1.93592C146.697 2.13057 146.697 2.13057 147.171 2.32915C148.17 2.90388 148.17 2.90388 148.654 4.35582C148.176 5.40921 148.176 5.40921 147.43 6.61502C147.167 7.04706 146.903 7.4791 146.631 7.92423C146.209 8.59849 146.209 8.59849 145.779 9.28637C145.36 9.96905 145.36 9.96905 144.933 10.6655C144.241 11.7916 143.544 12.9147 142.843 14.0354C145.026 14.121 146.722 14.1445 148.654 13.0675C149.621 12.0857 149.621 12.0857 150.47 10.8896C151.885 9.04785 153.327 7.25258 154.858 5.50527C155.211 5.09975 155.563 4.69423 155.927 4.27642C156.886 3.38786 156.886 3.38786 158.338 3.38786C158.498 3.22815 158.658 3.06843 158.823 2.90388C160.457 2.96438 160.457 2.96438 162.212 3.38786C162.691 4.18643 163.171 4.98499 163.665 5.80776C161.907 8.20346 160.149 10.5992 158.338 13.0675C159.079 13.0032 159.819 12.9389 160.582 12.8727C166.68 12.363 172.772 11.979 178.887 11.7668C179.518 11.7434 180.149 11.7201 180.799 11.696C181.386 11.6775 181.973 11.6591 182.577 11.6401C183.359 11.6151 183.359 11.6151 184.156 11.5896C185.454 11.6155 185.454 11.6155 186.907 12.0995C186.907 12.4189 186.907 12.7384 186.907 13.0675C194.897 13.3869 202.886 13.7063 211.118 14.0354C211.277 14.3548 211.437 14.6743 211.602 15.0034C211.207 15.0008 210.812 14.9983 210.406 14.9957C198.689 14.9316 187 15.1688 175.286 15.4874C186.551 15.7269 186.551 15.7269 198.044 15.9713C198.044 16.1311 198.044 16.2908 198.044 16.4553C197.301 16.4697 197.301 16.4697 196.543 16.4844C184.758 16.7186 173.007 17.1686 161.244 17.9073C161.582 17.8926 161.92 17.8779 162.269 17.8628C168.871 17.581 175.457 17.3405 182.065 17.4233C181.905 17.7427 181.745 18.0621 181.581 18.3912C180.732 18.5628 180.732 18.5628 179.614 18.6344C179.198 18.6634 178.781 18.6924 178.351 18.7223C177.672 18.7624 177.672 18.7624 176.979 18.8034C176.517 18.8342 176.056 18.8651 175.58 18.8969C174.1 18.9948 172.62 19.0863 171.14 19.1777C170.139 19.2428 169.138 19.3084 168.137 19.3743C165.678 19.5363 163.219 19.6895 160.759 19.8432C164.914 19.8432 169.069 19.8432 173.349 19.8432C173.349 20.1626 173.349 20.482 173.349 20.8111C172.746 20.8571 172.142 20.9031 171.521 20.9505C169.277 21.1243 167.035 21.3126 164.793 21.5053C163.824 21.5866 162.854 21.664 161.884 21.7374C160.487 21.8437 159.092 21.9641 157.697 22.0873C157.265 22.1171 156.832 22.147 156.387 22.1777C154.344 22.3714 153.276 22.544 151.617 23.821C150.583 25.1768 149.692 26.5198 148.851 28.0028C148.542 28.5431 148.233 29.0833 147.914 29.64C147.596 30.2059 147.278 30.7718 146.959 31.3377C146.644 31.8905 146.329 32.4432 146.004 33.0127C144.285 36.0328 142.587 39.0647 140.907 42.1063C142.959 40.1007 144.918 38.0511 146.793 35.8788C147.796 34.7186 148.814 33.5721 149.834 32.4267C150.163 32.0573 150.492 31.688 150.831 31.3075C151.071 31.0379 151.312 30.7684 151.559 30.4907C153.584 30.7327 154.486 31.81 155.826 33.2736C156.219 33.6904 156.612 34.1071 157.016 34.5365C157.854 35.8145 157.854 35.8145 157.875 36.9451C157.163 38.7617 156.188 40.3728 155.191 42.0458C151.699 48.0964 148.996 54.7092 147.201 61.4655C147.88 60.8835 148.555 60.2979 149.229 59.711C149.605 59.3854 149.982 59.0597 150.37 58.7242C152.867 56.3514 154.19 54.6289 154.828 51.2111C156.609 43.0086 161.137 33.6115 168.023 28.5548C169.715 27.7093 171.503 27.7979 173.349 28.0708C175.078 28.9149 176.059 30.1172 176.95 31.8217C178.001 37.8894 174.33 43.5557 170.958 48.3678C169.642 50.1082 168.219 51.5929 166.631 53.0866C164.634 54.9893 164.011 56.3256 163.665 59.0456C172.836 54.8773 177.647 46.7981 181.465 37.7675C182.225 35.6643 182.154 33.756 182.035 31.5494C181.921 27.4293 182.608 24.3055 184.613 20.6712C185.454 19.8432 185.454 19.8432 186.807 19.6239C188.646 19.8836 189.821 20.471 191.416 21.4161C192.177 21.8541 192.177 21.8541 192.954 22.3009C194.17 23.231 194.17 23.231 194.658 24.2103C194.653 25.4624 194.27 25.8474 193.474 26.8004C191.607 29.6177 191.795 32.5591 192.233 35.8145C192.969 38.4299 193.804 41.0071 195.481 43.1744C195.688 43.4608 195.894 43.7471 196.107 44.0422C195.7 45.7094 195.05 46.8656 193.686 47.914C193.394 47.9384 193.103 47.9627 192.803 47.9878C191.099 48.651 190.467 50.1738 189.6 51.6951C189.41 52.0218 189.22 52.3484 189.024 52.6849C186.679 56.7954 184.971 60.6137 184.486 65.3373C190.22 60.3813 193.661 55.235 196.873 48.402C197.549 46.9695 198.246 45.5496 198.95 44.131C201.458 39.0394 203.756 33.8972 205.795 28.5991C206.675 26.3551 207.514 24.5432 209.181 22.7471C211.617 22.9361 212.604 24.0315 214.205 25.8022C214.638 26.2695 215.071 26.7368 215.517 27.2182C216.444 28.5548 216.444 28.5548 216.435 29.5549C215.862 30.6839 215.208 31.6954 214.477 32.7291C213.374 34.1426 213.374 34.1426 213.055 35.8145C216.485 32.8564 216.485 32.8564 219.501 29.4925C220.802 28.0708 220.802 28.0708 221.933 27.8156C223.788 28.1826 224.639 29.3392 225.795 30.7327C226.015 30.9867 226.235 31.2406 226.462 31.5022C227.003 32.1277 227.535 32.7605 228.065 33.3946C227.527 34.7157 226.987 35.4362 225.947 36.4422C224.52 37.9105 223.628 39.44 222.739 41.2593C222.574 41.5926 222.409 41.926 222.239 42.2694C220.276 46.3932 218.093 51.5082 218.381 56.1417C221.473 52.2156 224.385 48.2439 227.097 44.0422C227.416 44.3616 227.736 44.681 228.065 45.0101C222.068 55.3317 222.068 55.3317 219.016 59.8925C218.818 60.1889 218.62 60.4853 218.416 60.7907C217.655 61.9122 216.921 62.9248 215.96 63.8854C213.321 63.7535 211.501 63.283 209.181 61.9494C208.796 54.6472 211.332 47.8761 213.735 41.098C214.071 40.1782 214.071 40.1782 214.023 39.2024C207.935 43.4065 206.168 50.7384 203.992 57.4354C202.945 60.6069 201.738 63.4604 199.981 66.3053C198.789 65.6823 197.599 65.0568 196.41 64.4298C196.071 64.2533 195.733 64.0767 195.385 63.8948C192.827 62.5431 192.827 62.5431 191.749 61.4655C188.884 64.5569 186.132 67.6811 183.521 70.9938C182.59 72.0661 181.854 72.875 180.612 73.565C179.415 73.529 179.415 73.529 178.161 73.2322C177.746 73.1405 177.331 73.0488 176.903 72.9543C175.77 72.597 175.77 72.597 174.317 71.629C172.406 63.177 179.608 52.8542 183.727 45.9252C184.614 44.3314 184.614 44.3314 184.97 42.5902C184.664 41.9368 184.343 41.2902 184.002 40.6543C183.863 40.905 183.725 41.1557 183.582 41.414C180.842 46.3401 178.159 51.0135 174.317 55.1737C174 55.5237 173.683 55.8737 173.357 56.2343C170.146 59.6168 165.952 63.4317 161.062 63.6434C158.832 63.5987 157.712 62.8153 156.116 61.3218C155.393 60.4488 154.955 59.5791 154.465 58.5616C154.267 58.7739 154.069 58.9862 153.865 59.205C152.966 60.1705 152.066 61.1356 151.166 62.1007C150.855 62.4348 150.544 62.7689 150.223 63.1131C149.922 63.4359 149.621 63.7588 149.31 64.0914C149.034 64.388 148.758 64.6845 148.473 64.99C148.213 65.2643 147.953 65.5387 147.686 65.8213C147.441 66.0925 147.196 66.3637 146.944 66.6431C146.233 67.2732 146.233 67.2732 144.852 67.4698C143.038 67.2358 142.175 66.6759 140.725 65.5793C140.302 65.2649 139.879 64.9504 139.443 64.6265C138.969 64.2596 138.969 64.2596 138.486 63.8854C138.73 60.4932 139.493 57.6506 140.695 54.478C140.865 54.02 141.034 53.562 141.209 53.0901C142.862 48.7006 144.742 44.4229 146.717 40.1703C138.407 48.2081 132.332 58.2678 130.254 69.6931C128.212 69.4527 127.271 68.3638 125.926 66.88C123.989 64.3852 123.989 64.3852 123.882 62.5809C124.26 61.01 124.812 59.5789 125.412 58.0776C125.644 57.3696 125.87 56.6599 126.093 55.9488C129.77 44.4383 135.588 33.689 142.359 23.715C141.603 23.7453 140.846 23.7755 140.09 23.8058C139.668 23.8226 139.247 23.8395 138.813 23.8568C136.361 24.5044 135.169 26.4001 133.937 28.4887C133.541 29.2037 133.151 29.9217 132.766 30.642C132.555 31.0298 132.345 31.4175 132.128 31.8171C131.498 32.9854 130.875 34.1576 130.254 35.3305C130.085 35.6445 129.915 35.9585 129.741 36.282C124.591 45.864 120.876 56.1789 117.577 66.5194C116.977 68.3894 116.353 70.2515 115.727 72.113C113.488 72.113 112.834 71.6372 111.006 70.4191C110.53 70.1047 110.053 69.7902 109.561 69.4663C109.018 69.0994 109.018 69.0994 108.464 68.7252C107.274 70.1556 106.182 71.6271 105.135 73.1642C104.765 73.706 104.765 73.706 104.386 74.2588C103.873 75.0114 103.364 75.7664 102.858 76.5237C102.611 76.8824 102.364 77.2411 102.109 77.6107C101.888 77.9375 101.667 78.2642 101.439 78.6009C100.57 79.5295 100.034 79.7205 98.78 79.8567C97.5827 79.4086 97.5827 79.4086 96.3287 78.7375C95.9136 78.5198 95.4985 78.302 95.0708 78.0777C94.1873 77.5779 93.3299 77.0317 92.4852 76.4688C92.0897 73.5039 93.043 71.2699 94.18 68.6042C94.3512 68.1868 94.5225 67.7693 94.6989 67.3393C95.6031 65.1472 96.5448 62.9741 97.5127 60.8094C97.6947 60.3963 97.8766 59.9831 98.0641 59.5574C98.4138 58.7672 98.771 57.9802 99.1365 57.1971C100.113 55.0691 100.113 55.0691 99.8808 52.7973C99.6773 52.4635 99.4739 52.1298 99.2642 51.7859C99.0245 51.3067 99.0245 51.3067 98.78 50.8179C98.6511 51.0565 98.5221 51.295 98.3893 51.5408C92.6099 62.194 92.6099 62.194 90.5483 64.3693C90.069 64.3693 89.5896 64.3693 89.0957 64.3693C89.3766 61.9691 90.4782 60.1767 91.6378 58.1079C95.2115 51.4283 96.6914 46.6419 96.2701 39.0171C96.116 35.2564 96.116 35.2564 96.881 33.9658C97.5392 33.3058 97.5392 33.3058 98.78 32.4267C98.9398 32.2669 99.0996 32.1072 99.2642 31.9427C102.191 31.5038 104.135 32.8749 106.527 34.3626C106.093 37.0923 106.093 37.0923 105.792 38.1475C104.92 42.0996 105.255 46.6712 107.012 50.3339C108.252 51.6956 108.252 51.6956 109.433 52.7538C109.433 55.1163 108.905 55.5347 107.435 57.3214C103.511 62.2844 101.375 67.795 100.717 74.0489C101.036 74.0489 101.356 74.0489 101.685 74.0489C101.799 73.8019 101.912 73.5548 102.03 73.3003C102.706 72.0144 103.476 70.8054 104.263 69.5851C108.509 62.9754 111.651 56.0375 114.734 48.8265C118.169 40.8025 121.986 32.9694 125.896 25.167C120.014 25.0138 114.176 25.4811 108.313 25.8929C107.292 25.9631 106.271 26.033 105.25 26.1028C102.77 26.2726 100.291 26.445 97.8116 26.6189C99.538 23.1154 101.465 19.7113 105.075 17.9073C105.884 17.7995 106.697 17.7163 107.51 17.6455C108.017 17.6003 108.525 17.555 109.048 17.5083C109.873 17.4372 109.873 17.4372 110.715 17.3647C111.873 17.2605 113.03 17.1562 114.188 17.0518C116.019 16.8889 117.85 16.7272 119.681 16.5677C121.444 16.4133 123.206 16.2541 124.969 16.0942C125.517 16.0478 126.066 16.0014 126.631 15.9536C127.141 15.9068 127.652 15.8599 128.178 15.8117C128.626 15.7723 129.075 15.7329 129.537 15.6924C132.098 15.2552 133.065 14.1137 134.612 12.0995C134.981 11.7539 135.35 11.4082 135.73 11.0521C137.276 9.42332 138.364 7.69573 139.515 5.77751C142.433 0.972423 142.433 0.972423 143.328 0ZM158.338 14.0354C158.338 14.1951 158.338 14.3548 158.338 14.5194C162.724 14.5929 167.042 14.3695 171.412 14.0354C171.412 13.8757 171.412 13.716 171.412 13.5514C167.024 13.5019 162.705 13.5176 158.338 14.0354ZM153.98 14.5194C153.98 14.6791 153.98 14.8388 153.98 15.0034C154.939 15.0034 155.898 15.0034 156.886 15.0034C156.886 14.8437 156.886 14.684 156.886 14.5194C155.927 14.5194 154.968 14.5194 153.98 14.5194ZM173.833 37.2665C171.629 39.4835 169.91 41.8592 168.356 44.5564C168.111 44.9753 168.111 44.9753 167.861 45.4027C166.775 47.339 166.138 49.1665 165.602 51.3019C169.38 47.7542 172.495 43.6102 174.317 38.7184C174.158 38.2393 173.998 37.7601 173.833 37.2665ZM217.412 56.6257C217.897 57.5936 217.897 57.5936 217.897 57.5936L217.412 56.6257Z" fill="black"/>
<path d="M122.507 69.6934C124.771 70.7404 126.737 72.1026 128.317 74.0492C128.346 75.8238 128.134 76.8361 127.349 78.405C128.947 78.2453 130.545 78.0856 132.191 77.921C132.351 78.2404 132.511 78.5599 132.675 78.889C133.142 78.8484 133.609 78.8079 134.09 78.7661C135.008 78.6922 135.008 78.6922 135.944 78.6167C136.55 78.5662 137.157 78.5157 137.782 78.4636C139.161 78.4153 140.105 78.4506 141.391 78.889C141.391 78.5696 141.391 78.2501 141.391 77.921C145.546 77.2822 149.7 76.6433 153.981 75.9851C154.141 76.4642 154.3 76.9434 154.465 77.437C155.028 77.3322 155.591 77.2274 156.171 77.1194C161.632 76.1532 166.841 75.8065 172.381 75.9851C172.381 76.1448 172.381 76.3045 172.381 76.4691C164.391 77.5871 156.402 78.7051 148.17 79.8569C155.933 78.743 163.661 77.7591 171.476 77.1156C172.301 77.0476 173.126 76.9778 173.951 76.9062C175.114 76.8063 176.277 76.7139 177.441 76.6241C177.789 76.5935 178.138 76.5629 178.498 76.5313C180.33 76.4007 180.97 76.3848 182.549 77.437C181.591 77.6766 181.591 77.6766 180.613 77.921C181.08 77.8873 181.08 77.8873 181.556 77.853C185.422 77.6986 188.609 78.5668 192.234 79.8569C192.074 80.3361 191.914 80.8152 191.749 81.3089C191.121 81.3523 190.492 81.3958 189.844 81.4405C175.999 82.409 162.225 83.6095 148.484 85.5725C145.613 85.9793 142.742 86.3319 139.86 86.6489C137.932 86.8669 136.008 87.1143 134.084 87.3679C133.178 87.4811 132.271 87.5823 131.362 87.6704C126.653 87.9989 126.653 87.9989 122.742 90.3138C121.465 92.195 120.657 94.2241 119.922 96.3664C119.522 97.5071 119.005 98.5666 118.457 99.6434C114.284 108.611 110.981 118 107.95 127.408C107.817 127.819 107.684 128.23 107.547 128.654C106.496 132.007 105.559 135.373 105.559 138.903C106.903 137.659 108.173 136.359 109.433 135.031C109.821 134.637 110.21 134.243 110.61 133.838C113.618 130.402 114.276 127.613 114.746 123.172C115.11 119.752 115.78 116.514 116.666 113.191C116.783 112.744 116.9 112.298 117.02 111.838C117.871 108.693 118.931 105.649 120.086 102.604C121.61 103.315 122.306 103.815 123.173 105.266C124.312 106.973 125.303 107.5 127.349 107.928C126.627 110.345 125.901 112.761 125.153 115.17C122.757 122.777 122.757 122.777 122.023 130.675C122.872 129.375 123.718 128.074 124.565 126.773C124.803 126.409 125.04 126.045 125.285 125.67C125.98 124.6 126.667 123.525 127.349 122.447C127.538 122.154 127.727 121.862 127.922 121.56C129.221 119.45 129.755 117.488 130.224 115.097C131.956 107.138 135.691 98.3509 142.592 93.5388C145.341 92.0182 147.477 91.7054 150.591 91.9564C151 92.7202 151.402 93.4871 151.802 94.2553C152.026 94.6821 152.251 95.1088 152.483 95.5485C153.012 96.7962 153.012 96.7962 153.012 98.7322C151.814 98.9717 151.814 98.9717 150.591 99.2161C150.529 99.8066 150.529 99.8066 150.465 100.409C149.213 110.612 145.6 121.983 138.667 129.798C137.517 130.675 137.517 130.675 136.39 130.858C134.617 130.607 133.904 129.84 132.615 128.618C132.204 128.236 131.793 127.854 131.37 127.461C130.41 126.479 129.589 125.505 128.802 124.383C128.567 124.857 128.332 125.33 128.09 125.818C123.313 135.243 123.313 135.243 119.806 136.416C118.633 136.483 118.633 136.483 117.392 135.424C117.003 134.975 116.613 134.526 116.212 134.063C115.57 133.414 114.925 132.768 114.275 132.127C114.117 132.341 113.959 132.555 113.796 132.776C108.238 140.286 108.238 140.286 105.66 143.026C104.963 143.794 104.963 143.794 104.591 145.194C99.7097 144.698 99.7097 144.698 98.2961 143.742C97.3573 141.068 97.0911 138.329 96.8435 135.515C96.6843 135.878 96.5251 136.241 96.3611 136.615C94.6369 140.323 92.6256 143.397 89.5803 146.162C87.7761 146.763 86.1279 146.905 84.2539 146.646C81.7834 145.342 80.296 143.974 79.4118 141.322C79.2189 141.62 79.026 141.918 78.8273 142.224C78.5708 142.615 78.3142 143.007 78.0499 143.41C77.7971 143.797 77.5443 144.184 77.2839 144.584C75.5528 147.021 75.5528 147.021 73.9379 147.374C73.5272 147.383 73.1164 147.393 72.6933 147.402C72.081 147.433 72.081 147.433 71.4563 147.465C69.9722 147.066 69.1838 146.422 68.2616 145.196C67.2903 143.196 67.4591 141.051 67.5182 138.872C67.5266 138.375 67.535 137.878 67.5437 137.366C67.7285 131.414 69.073 126.523 73.117 121.963C74.541 120.692 76.0438 119.792 77.9591 119.543C78.9446 119.974 78.9446 119.974 79.9262 120.632C80.414 120.95 80.414 120.95 80.9117 121.275C81.7887 121.93 82.5349 122.621 83.2855 123.415C83.4053 123.016 83.5252 122.617 83.6486 122.205C84.3445 120.258 85.2337 118.469 86.1908 116.639C85.7058 116.739 85.2208 116.838 84.7211 116.94C84.0711 117.072 83.421 117.203 82.771 117.335C82.453 117.4 82.1349 117.466 81.8073 117.533C80.2299 117.851 78.6829 118.122 77.0834 118.32C75.4682 118.478 75.4682 118.478 74.0854 119.543C70.9608 119.324 70.9608 119.324 69.7275 118.091C69.5531 116.865 69.4357 115.693 69.3643 114.462C69.3375 114.128 69.3106 113.794 69.283 113.45C69.2269 112.579 69.2312 111.704 69.2433 110.832C70.4148 109.661 70.9027 109.676 72.5174 109.486C72.9796 109.428 73.4418 109.37 73.918 109.31C74.4027 109.253 74.8874 109.196 75.3867 109.138C78.448 108.772 81.2845 108.293 84.2539 107.444C84.717 107.464 85.1802 107.484 85.6574 107.504C87.8284 107.417 89.4261 106.489 91.3355 105.508C92.0563 105.141 92.7788 104.778 93.5031 104.419C93.8194 104.257 94.1356 104.095 94.4614 103.927C95.3908 103.572 95.3908 103.572 97.3277 103.572C97.6123 104.036 97.6123 104.036 97.9027 104.51C99.168 105.949 100.387 105.824 102.236 105.954C102.534 105.967 102.831 105.979 103.138 105.992C103.298 106.631 103.458 107.27 103.622 107.928C103.21 108.15 103.21 108.15 102.788 108.376C99.4033 110.381 97.7314 112.737 95.875 116.155C95.5854 116.682 95.2958 117.209 94.9974 117.751C91.2977 124.796 88.1162 133.231 88.6118 141.322C92.318 138.721 94.2327 135.055 96.3593 131.159C96.6688 130.604 96.9784 130.05 97.2974 129.478C98.6876 126.655 99.5535 123.614 100.511 120.624C103.735 110.592 107.504 100.788 111.37 90.9885C99.7944 93.0129 99.7944 93.0129 88.3035 95.4596C86.7969 95.8007 85.2958 96.0756 83.7697 96.3123C84.4463 93.0758 85.7328 89.9308 88.1276 87.6006C92.0182 85.2635 97.157 84.8526 101.568 84.2156C103.559 83.922 105.544 83.5945 107.526 83.2448C107.922 83.175 108.318 83.1052 108.725 83.0333C112.742 82.2729 116.052 81.6208 118.639 78.2254C119.979 75.9781 120.961 73.6505 121.719 71.1483C122.023 70.1773 122.023 70.1773 122.507 69.6934ZM169.476 78.405C169.476 78.5647 169.476 78.7244 169.476 78.889C170.914 78.889 172.352 78.889 173.834 78.889C173.834 78.7293 173.834 78.5696 173.834 78.405C172.395 78.405 170.957 78.405 169.476 78.405ZM165.118 78.889C165.118 79.0487 165.118 79.2084 165.118 79.373C166.396 79.373 167.674 79.373 168.991 79.373C168.991 79.2132 168.991 79.0535 168.991 78.889C167.713 78.889 166.435 78.889 165.118 78.889ZM161.244 79.373C161.244 79.5327 161.244 79.6924 161.244 79.8569C162.362 79.8569 163.481 79.8569 164.633 79.8569C164.633 79.6972 164.633 79.5375 164.633 79.373C163.515 79.373 162.396 79.373 161.244 79.373ZM179.644 79.373C179.644 79.5327 179.644 79.6924 179.644 79.8569C181.562 79.8569 183.479 79.8569 185.455 79.8569C185.455 79.6972 185.455 79.5375 185.455 79.373C183.537 79.373 181.62 79.373 179.644 79.373ZM157.37 79.8569C157.37 80.0167 157.37 80.1764 157.37 80.3409C158.329 80.3409 159.288 80.3409 160.276 80.3409C160.276 80.1812 160.276 80.0215 160.276 79.8569C159.317 79.8569 158.358 79.8569 157.37 79.8569ZM174.318 79.8569C174.318 80.0167 174.318 80.1764 174.318 80.3409C175.596 80.3409 176.874 80.3409 178.191 80.3409C178.191 80.1812 178.191 80.0215 178.191 79.8569C176.913 79.8569 175.635 79.8569 174.318 79.8569ZM141.391 80.3409C141.391 80.5006 141.391 80.6603 141.391 80.8249C142.35 80.8249 143.309 80.8249 144.296 80.8249C144.296 80.6652 144.296 80.5055 144.296 80.3409C143.338 80.3409 142.379 80.3409 141.391 80.3409ZM153.981 80.3409C153.981 80.5006 153.981 80.6603 153.981 80.8249C154.78 80.8249 155.579 80.8249 156.402 80.8249C156.402 80.6652 156.402 80.5055 156.402 80.3409C155.603 80.3409 154.804 80.3409 153.981 80.3409ZM168.507 80.3409C168.507 80.5006 168.507 80.6603 168.507 80.8249C169.466 80.8249 170.425 80.8249 171.412 80.8249C171.412 80.6652 171.412 80.5055 171.412 80.3409C170.454 80.3409 169.495 80.3409 168.507 80.3409ZM138.002 80.8249C138.002 80.9846 138.002 81.1443 138.002 81.3089C138.801 81.3089 139.6 81.3089 140.423 81.3089C140.423 81.1492 140.423 80.9895 140.423 80.8249C139.624 80.8249 138.825 80.8249 138.002 80.8249ZM150.591 80.8249C152.528 81.3089 152.528 81.3089 152.528 81.3089L150.591 80.8249ZM144.8 102.982C140.223 107.959 137.414 115.413 137.487 122.114C137.492 122.632 137.496 123.149 137.5 123.682C137.506 124.073 137.512 124.464 137.517 124.867C139.541 124.193 140.05 122.803 141.028 121.025C141.218 120.684 141.408 120.342 141.604 119.989C144.58 114.483 148.006 107.543 147.686 101.152C146.521 101.152 145.63 102.258 144.8 102.982ZM80.3802 127.287C77.3032 131.472 74.5326 136.527 74.0854 141.806C74.2351 142.455 74.3952 143.1 74.5696 143.742C78.2855 138.453 80.8282 134.325 81.3486 127.771C81.029 127.611 80.7094 127.452 80.3802 127.287Z" fill="black"/>
<path d="M90.0646 73.5645C90.5439 73.5645 91.0233 73.5645 91.5172 73.5645C90.8178 75.5455 89.8473 77.1038 88.6365 78.8164C88.2622 79.3532 87.888 79.8901 87.5139 80.4271C86.926 81.2654 86.3365 82.1025 85.7443 82.9378C85.1706 83.749 84.6032 84.5643 84.0365 85.3804C83.5246 86.1062 83.5246 86.1062 83.0024 86.8467C82.6632 87.4591 82.6632 87.4591 82.3171 88.0839C82.4769 88.563 82.6367 89.0421 82.8013 89.5358C81.1705 93.5253 78.4504 97.1245 75.9921 100.637C75.4879 101.373 75.4879 101.373 74.9735 102.124C74.6449 102.596 74.3163 103.068 73.9777 103.554C73.6843 103.977 73.3909 104.399 73.0886 104.834C72.1486 105.991 72.1486 105.991 70.9084 106.965C69.6424 107.996 69.1011 108.814 68.3733 110.262C68.1415 110.715 67.9097 111.168 67.671 111.635C67.4308 112.118 67.1907 112.602 66.9433 113.1C66.4249 114.123 65.906 115.145 65.3867 116.168C65.1346 116.668 64.8825 117.167 64.6227 117.682C64.044 118.811 63.4488 119.922 62.8256 121.027C59.1849 127.503 56.4282 134.407 53.5522 141.246C52.7303 143.2 51.8997 145.15 51.0532 147.094C49.0521 151.706 47.3884 156.332 46.0011 161.165C42.9608 160.621 39.9454 159.766 37.5576 157.747C34.5224 152.043 35.0864 146.476 36.6194 140.429C36.8129 139.637 36.8129 139.637 37.0102 138.829C37.4195 137.158 37.8363 135.489 38.2536 133.82C38.6694 132.137 39.0837 130.453 39.497 128.769C39.7539 127.725 40.0125 126.681 40.273 125.638C40.3893 125.169 40.5057 124.7 40.6255 124.217C40.7288 123.804 40.832 123.391 40.9383 122.965C41.1936 121.976 41.1936 121.976 41.1589 120.995C41.028 121.247 40.8971 121.499 40.7622 121.759C40.1289 122.977 39.494 124.194 38.8589 125.411C38.6181 125.873 38.3773 126.336 38.1292 126.813C36.9372 129.091 35.7318 131.357 34.4575 133.591C27.6131 145.638 19.8826 160.001 17.8675 173.852C17.3138 175.568 16.4838 176.148 15.0114 177.136C14.1337 176.864 14.1337 176.864 13.0745 176.168C12.0004 174.101 11.4192 172.184 11.1377 169.876C10.5834 169.802 10.5834 169.802 10.0179 169.725C8.59604 169.362 8.20858 169.014 7.26394 167.941C6.78457 167.621 6.30519 167.302 5.81129 166.973C5.33033 163.162 6.49498 160.623 8.20399 157.268C8.45315 156.763 8.70232 156.258 8.95903 155.737C9.76738 154.104 10.5882 152.477 11.41 150.85C11.9695 149.728 12.5284 148.606 13.0869 147.484C18.3955 136.852 23.8581 126.322 30.022 116.155C30.5267 115.318 31.0311 114.481 31.5352 113.644C31.7568 113.278 31.9783 112.913 32.2066 112.536C32.9368 111.299 33.6357 110.046 34.3339 108.79C36.0587 105.708 37.9062 102.884 40.1905 100.183C40.6558 99.6288 41.1211 99.0743 41.5864 98.5197C42.8897 96.9711 44.2014 95.4299 45.5169 93.8916C46.2359 94.1312 46.2359 94.1312 46.9695 94.3756C45.2917 97.7296 45.2917 97.7296 43.58 101.151C46.5542 97.2055 49.0717 93.463 50.7222 88.7796C52.8463 82.8048 52.8463 82.8048 55.6854 81.3081C57.1459 81.3081 57.7952 81.6366 59.0749 82.2761C59.2746 82.0465 59.4743 81.8169 59.6801 81.5804C60.6574 80.7082 61.1499 80.38 62.4644 80.3402C63.5841 81.0661 63.5841 81.0661 64.4012 82.2761C64.2089 84.6737 63.6104 86.8288 62.8551 89.1048C62.7479 89.4302 62.6408 89.7557 62.5304 90.0911C62.1788 91.1572 61.8232 92.2219 61.4676 93.2866C61.2206 94.0332 60.9739 94.7798 60.7275 95.5265C60.08 97.4864 59.4292 99.4453 58.7775 101.404C57.7355 104.538 56.699 107.674 55.6616 110.809C55.3004 111.9 54.938 112.99 54.5754 114.08C54.3518 114.754 54.1282 115.428 53.9047 116.102C53.7104 116.686 53.5162 117.27 53.3161 117.872C52.7776 119.55 52.2867 121.233 51.8116 122.93C51.984 122.634 52.1564 122.338 52.334 122.033C54.416 118.458 56.5018 114.886 58.5906 111.315C58.885 110.812 59.1794 110.308 59.4827 109.79C60.3136 108.371 61.1465 106.954 61.9801 105.537C62.2293 105.112 62.4785 104.686 62.7352 104.248C63.9333 102.216 65.1562 100.201 66.4289 98.2153C66.7687 97.6832 66.7687 97.6832 67.1155 97.1404C67.7907 96.3115 67.7907 96.3115 69.2433 95.8275C70.0674 94.7341 70.8255 93.6439 71.5736 92.5002C73.6793 89.3578 75.8582 86.2831 78.1105 83.2441C78.3885 82.8686 78.6664 82.4931 78.9528 82.1062C79.4881 81.3847 80.0248 80.6643 80.563 79.9451C81.1023 79.2197 81.6352 78.4897 82.1627 77.7558C82.4203 77.4008 82.6778 77.0458 82.9432 76.6801C83.1724 76.36 83.4016 76.04 83.6377 75.7102C83.8411 75.4813 84.0445 75.2523 84.254 75.0164C84.5736 75.0164 84.8931 75.0164 85.2224 75.0164C84.5693 76.787 83.7694 78.2996 82.7446 79.8827C82.4506 80.34 82.1566 80.7973 81.8537 81.2684C81.5472 81.7407 81.2408 82.213 80.925 82.6996C79.0588 85.588 77.2064 88.4636 75.5381 91.4717C75.7009 91.2458 75.8637 91.0199 76.0314 90.7872C79.7176 85.6744 83.4219 80.5759 87.1593 75.5004C87.6386 75.6601 88.118 75.8198 88.6119 75.9844C88.8216 75.5851 89.0314 75.1858 89.2474 74.7744C89.5171 74.3751 89.7867 73.9758 90.0646 73.5645ZM87.1593 76.9523C87.6435 77.9203 87.6435 77.9203 87.6435 77.9203L87.1593 76.9523ZM86.1908 78.4043C86.6751 79.3722 86.6751 79.3722 86.6751 79.3722L86.1908 78.4043ZM74.5697 91.9557C75.0539 92.9237 75.0539 92.9237 75.0539 92.9237L74.5697 91.9557ZM41.6431 103.087C42.1274 104.055 42.1274 104.055 42.1274 104.055L41.6431 103.087ZM50.8432 123.898C51.3274 124.866 51.3274 124.866 51.3274 124.866L50.8432 123.898Z" fill="black"/>
<path d="M108.464 0.48373C107.824 2.36207 107.071 3.50515 105.661 4.89402C105.284 5.26893 104.908 5.64383 104.519 6.0301C103.907 6.62834 103.907 6.62834 103.283 7.23866C102.862 7.65575 102.442 8.07284 102.009 8.50257C100.663 9.83602 99.3131 11.1645 97.9623 12.4925C96.621 13.8161 95.2807 15.1408 93.9418 16.4669C93.1091 17.291 92.2748 18.1137 91.4389 18.9346C89.094 21.2496 86.8782 23.631 84.7372 26.1347C84.0329 26.9128 83.3271 27.6894 82.6187 28.4638C80.7331 30.5523 78.9428 32.7027 77.1732 34.8898C76.1523 36.1381 75.1144 37.3675 74.0656 38.5922C71.2079 41.9322 68.478 45.356 65.8528 48.8817C65.6222 49.1913 65.3916 49.5009 65.1539 49.8199C58.176 59.2351 51.3384 68.8914 46.2313 79.4665C45.783 80.3945 45.3319 81.3211 44.8805 82.2475C44.2816 83.4774 43.6959 84.7125 43.1172 85.9521C42.8433 86.519 42.5693 87.086 42.2871 87.6701C42.0461 88.1809 41.805 88.6918 41.5567 89.2181C40.2609 91.1053 38.6978 91.7569 36.4973 92.2282C35.0189 91.8782 34.7174 91.185 33.933 89.9441C32.9832 88.3226 32.1405 86.6594 31.3223 84.9685C31.1422 84.6176 30.9622 84.2666 30.7766 83.9051C30.609 83.5579 30.4414 83.2107 30.2688 82.853C30.1163 82.5445 29.9638 82.236 29.8067 81.9182C29.1188 79.1304 30.305 76.4746 31.3469 73.9183C32.8968 69.95 34.0519 65.9204 35.1344 61.8035C35.4395 60.6433 35.7499 59.4845 36.0614 58.326C37.2004 54.0665 38.2674 49.7991 39.2211 45.4939C31.2477 57.317 23.7789 69.2625 16.9472 81.7924C16.6595 82.3195 16.3719 82.8466 16.0755 83.3897C12.7423 89.4827 12.7423 89.4827 9.5024 95.6255C7.89426 98.7352 6.36756 101.563 3.87341 104.055C3.71362 104.055 3.55383 104.055 3.3892 104.055C3.33614 103.681 3.28309 103.307 3.22842 102.921C2.82135 100.248 2.34485 97.8116 1.32183 95.3098C0.0622967 91.9841 -0.74082 88.3395 0.708997 84.9969C2.29691 81.9339 4.31421 79.1266 6.26422 76.2871C6.68052 75.6774 7.09676 75.0677 7.51294 74.458C10.2551 70.4498 13.0602 66.4922 15.9258 62.5712C17.5987 60.2782 19.2264 57.9544 20.8512 55.6272C21.135 55.2208 21.4189 54.8144 21.7113 54.3958C22.2739 53.5901 22.8365 52.7844 23.399 51.9787C26.8768 47.0025 30.3939 42.056 33.9605 37.143C35.529 34.9793 37.0741 32.8012 38.6036 30.6098C46.7735 18.9159 46.7735 18.9159 50.358 17.423C53.8785 17.2739 56.5471 18.0826 59.558 19.8429C59.848 23.0986 58.8142 25.5871 57.6212 28.5848C57.2179 29.6308 56.8151 30.6769 56.4125 31.7231C56.2085 32.2481 56.0045 32.7731 55.7943 33.314C52.5766 41.6122 49.8951 50.0033 47.4527 58.5613C51.7583 53.0369 56.0511 47.5033 60.3108 41.9434C62.7668 38.741 65.2521 35.565 67.7897 32.4264C68.1093 32.5861 68.4289 32.7458 68.7581 32.9104C68.9179 32.9104 69.0777 32.9104 69.2423 32.9104C70.146 31.8928 71.0294 30.866 71.9055 29.825C74.0294 27.3241 76.1773 24.8527 78.3857 22.4254C79.055 21.6873 79.7186 20.9438 80.3755 20.1946C83.9051 16.1874 87.7181 12.4622 91.5162 8.71139C91.5162 10.4293 91.2809 10.5913 90.1392 11.7873C89.7132 12.2388 89.7132 12.2388 89.2786 12.6995C88.9784 13.0105 88.6781 13.3215 88.3688 13.6419C88.0686 13.9586 87.7683 14.2752 87.459 14.6014C86.7163 15.3837 85.9704 16.1627 85.2214 16.9391C87.9937 14.7639 90.3962 12.3753 92.6965 9.7096C97.5292 4.12678 97.5292 4.12678 99.7478 3.38761C99.0325 5.05832 98.0831 6.12191 96.782 7.38045C96.4312 7.72233 96.0804 8.06422 95.719 8.41647C95.3164 8.80202 95.3164 8.80202 94.9057 9.19537C97.2634 7.39282 99.2446 5.31661 101.289 3.17398C103.558 1.114 105.395 0.26467 108.464 0.48373ZM89.5793 14.5192C89.2597 15.158 88.9402 15.7969 88.6109 16.4551C89.0903 16.1356 89.5696 15.8162 90.0635 15.4871C89.9038 15.1677 89.744 14.8483 89.5793 14.5192ZM84.253 17.907C83.6138 18.5459 82.9746 19.1847 82.3161 19.8429C82.4759 20.1624 82.6357 20.4818 82.8003 20.8109C83.4395 20.172 84.0787 19.5332 84.7372 18.875C84.5774 18.5555 84.4176 18.2361 84.253 17.907ZM85.2214 19.359C84.9018 19.9978 84.5822 20.6367 84.253 21.2949C84.7323 20.9754 85.2117 20.656 85.7056 20.3269C85.5458 20.0075 85.386 19.6881 85.2214 19.359ZM79.895 22.7468C80.3793 23.7148 80.3793 23.7148 80.3793 23.7148L79.895 22.7468ZM67.3055 34.3623C67.7897 35.3303 67.7897 35.3303 67.7897 35.3303L67.3055 34.3623Z" fill="black"/>
<path d="M240.169 43.0742C240.649 43.3138 240.649 43.3138 241.138 43.5582C238.741 47.2316 236.344 50.905 233.874 54.6897C235.854 52.1053 235.854 52.1053 237.597 49.366C237.806 49.0465 238.016 48.7271 238.232 48.398C238.712 48.398 239.191 48.398 239.685 48.398C239.188 49.7365 238.675 50.8831 237.899 52.0883C237.69 52.4677 237.48 52.847 237.264 53.2378C237.424 53.7169 237.583 54.1961 237.748 54.6897C237.313 55.7239 237.313 55.7239 236.598 56.9584C236.013 57.9765 235.428 58.9949 234.843 60.0135C234.683 60.2909 234.523 60.5684 234.359 60.8542C231.509 65.8108 228.862 70.8405 226.369 75.9849C226.102 76.5349 226.102 76.5349 225.829 77.0961C220.799 87.4899 216.296 98.4986 214.022 109.863C220.014 108.905 220.014 108.905 226.127 107.928C226.287 108.407 226.447 108.886 226.611 109.379C224.498 110.378 222.404 111.281 220.182 112.005C219.816 112.126 219.45 112.247 219.074 112.372C218.337 112.613 217.598 112.846 216.856 113.072C215.051 113.666 214.217 113.957 213.049 115.522C212.812 116.075 212.812 116.075 212.569 116.639C210.815 115.998 209.356 115.215 207.818 114.159C207.435 113.898 207.052 113.637 206.658 113.369C206.372 113.17 206.085 112.972 205.79 112.767C205.666 113.109 205.543 113.45 205.415 113.801C204.335 116.324 202.863 118.543 200.948 120.511C199.041 121.242 197.561 120.717 195.712 119.936C193.433 118.049 192.999 116.135 192.716 113.251C192.448 113.589 192.179 113.928 191.903 114.276C191.552 114.716 191.201 115.157 190.84 115.611C190.492 116.049 190.143 116.487 189.784 116.938C188.842 118.091 188.842 118.091 187.874 119.059C185.649 119.281 184.429 119.242 182.366 118.363C181.011 117.042 180.873 116.641 180.531 114.868C180.414 114.278 180.414 114.278 180.294 113.677C180.239 113.377 180.183 113.076 180.127 112.767C179.949 112.989 179.771 113.211 179.587 113.44C178.77 114.457 177.95 115.472 177.131 116.488C176.851 116.837 176.571 117.186 176.282 117.546C172.355 122.402 172.355 122.402 169.898 123.778C166.926 123.97 164.994 122.264 162.695 120.511C162.216 120.032 162.216 120.032 161.726 119.543C161.9 117.462 162.51 115.729 163.338 113.824C163.566 113.294 163.794 112.764 164.028 112.218C164.267 111.671 164.506 111.123 164.753 110.559C166.587 106.326 168.334 102.082 169.958 97.764C167.72 99.9235 165.529 102.11 163.512 104.479C163.065 105.001 163.065 105.001 162.61 105.534C159.759 110.135 158.742 115.891 157.369 121.065C157.209 121.645 157.049 122.224 156.884 122.821C156.745 123.342 156.605 123.864 156.461 124.401C155.853 126.002 155.178 127.034 153.979 128.255C151.933 128.623 150.851 128.742 149.101 127.599C148.262 126.883 147.476 126.149 146.716 125.351C147.029 123.616 147.477 121.997 148.047 120.33C148.22 119.82 148.393 119.31 148.571 118.784C148.758 118.236 148.944 117.688 149.137 117.123C150.374 113.461 151.593 109.796 152.731 106.101C152.826 105.792 152.921 105.484 153.019 105.165C153.475 103.681 153.926 102.196 154.374 100.709C157.53 90.3617 157.53 90.3617 159.79 87.1164C160.998 86.8498 160.998 86.8498 162.211 87.1164C163.015 87.9123 163.015 87.9123 163.694 88.9616C164.672 90.4495 165.575 91.4334 167.053 92.4402C166.838 93.838 166.438 94.57 165.63 95.7675C164.663 97.2324 164.143 98.5059 163.663 100.184C163.915 99.9324 164.166 99.681 164.426 99.422C169.958 93.8921 169.958 93.8921 170.722 93.1624C172.806 91.1453 174.549 88.9961 176.257 86.6513C177.39 85.492 178.033 85.2385 179.642 85.1805C180.958 86.4954 180.96 87.6992 181.26 89.4909C181.519 90.6834 181.519 90.6834 183.032 91.4722C182.77 93.2013 182.397 94.2641 181.337 95.6466C177.176 101.687 171.411 112.139 171.411 119.543C173.633 117.392 175.689 115.111 177.706 112.767C177.943 112.51 178.18 112.253 178.424 111.988C179.985 110.12 180.505 108.143 181.065 105.81C181.826 102.641 182.895 100.284 184.969 97.764C185.262 97.399 185.555 97.034 185.858 96.658C188.099 93.9786 188.099 93.9786 189.811 93.4081C190.697 93.3508 191.586 93.3234 192.474 93.3174C193.171 93.3071 193.171 93.3071 193.881 93.2966C195.137 93.4081 195.137 93.4081 196.59 94.3761C197.389 92.779 198.188 91.1818 199.011 89.5363C198.262 89.7659 197.513 89.9955 196.741 90.232C193.731 91.0437 190.516 91.7874 187.39 91.4722C186.352 90.5088 185.987 89.9022 185.795 88.5003C185.843 87.555 185.89 86.6097 185.937 85.6645C186.573 85.4527 187.208 85.241 187.844 85.0292C188.244 84.8945 188.645 84.7597 189.058 84.6209C189.819 84.3696 190.583 84.1259 191.351 83.8949C196.095 82.4357 200.309 80.1595 204.214 77.1078C205.524 76.3408 206.233 76.2309 207.727 76.4688C209.163 77.4655 209.439 78.5156 209.754 80.1894C209.831 80.5806 209.908 80.9718 209.987 81.3748C210.04 81.6724 210.093 81.97 210.148 82.2766C210.947 82.4363 211.746 82.596 212.569 82.7606C212.085 84.2125 212.085 84.2125 210.753 84.9687C205.641 88.2781 204.183 98.4271 202.961 103.989C202.147 107.925 201.683 111.639 201.916 115.671C204.139 112.34 205.458 109.22 206.456 105.356C209.15 95.6176 213.073 86.548 217.411 77.4368C217.743 76.7318 217.743 76.7318 218.083 76.0125C218.719 74.6686 219.364 73.3296 220.014 71.992C220.204 71.5915 220.394 71.1909 220.589 70.7782C221.694 68.5446 222.683 67.3603 224.674 65.8213C225.557 64.6073 226.288 63.3106 227.035 62.0099C229.17 58.4095 231.426 54.9122 233.784 51.4531C234.085 51.0081 234.386 50.563 234.696 50.1045C236.394 47.6257 238.167 45.3147 240.169 43.0742ZM235.811 54.2058C236.295 55.1737 236.295 55.1737 236.295 55.1737L235.811 54.2058ZM232.906 55.6577C232.906 57.1096 232.906 57.1096 232.906 57.1096V55.6577ZM231.938 57.1096C231.938 58.5616 231.938 58.5616 231.938 58.5616V57.1096ZM230.969 58.5616C231.453 59.5295 231.453 59.5295 231.453 59.5295L230.969 58.5616ZM230.001 60.0135C230.485 60.9815 230.485 60.9815 230.485 60.9815L230.001 60.0135ZM226.611 65.8213C227.095 66.7892 227.095 66.7892 227.095 66.7892L226.611 65.8213ZM192.675 100.619C189.042 104.605 187.686 109.937 187.874 115.187C188.194 115.187 188.513 115.187 188.842 115.187C192.47 110.381 194.355 104.539 195.621 98.7319C194.436 98.7319 193.524 99.8817 192.675 100.619Z" fill="black"/>
<path d="M90.1856 36.0259C92.1239 37.7556 92.6754 39.5744 92.9699 42.1059C92.4905 42.1059 92.0111 42.1059 91.5172 42.1059C91.5316 42.5988 91.546 43.0916 91.5607 43.5994C91.3326 53.5328 84.6733 67.83 77.7569 74.905C76.4965 75.8848 75.6715 76.1194 74.0855 75.9845C72.9153 75.3997 72.1662 74.88 71.1802 74.0486C70.5904 73.5629 70.5904 73.5629 69.9886 73.0674C64.6572 68.4964 64.6572 68.4964 64.2178 64.7339C64.4539 62.3958 65.2998 61.173 66.671 59.3174C66.9092 58.9844 67.1473 58.6514 67.3927 58.3082C84.3577 34.8932 84.3577 34.8932 90.1856 36.0259ZM86.1304 46.371C80.4968 52.0733 76.6573 59.7607 76.0224 67.7568C76.8213 67.9165 77.6203 68.0763 78.4435 68.2408C84.0302 61.4003 87.3956 53.254 88.612 44.5258C87.6167 44.5258 86.7878 45.735 86.1304 46.371Z" fill="black"/>
<path d="M124.928 92.4397C126.59 92.2387 127.241 92.3685 128.661 93.3075C129.087 93.6899 129.513 94.0723 129.951 94.4664C130.384 94.8426 130.818 95.2188 131.264 95.6064C132.191 96.7955 132.191 96.7955 132.196 97.9298C131.562 99.5946 130.803 101.176 129.982 102.755C129.822 103.067 129.663 103.379 129.498 103.701C129.107 104.466 128.713 105.229 128.317 105.991C126.519 105.734 125.469 105.351 124.11 104.146C123.829 103.903 123.547 103.661 123.257 103.411C122.42 102.51 121.941 101.832 121.538 100.667C121.698 98.6202 122.572 96.9988 123.505 95.1923C123.77 94.6751 124.036 94.1579 124.309 93.6251C124.615 93.0383 124.615 93.0383 124.928 92.4397Z" fill="black"/>
<path d="M50.3579 84.2129C50.6775 84.2129 50.9971 84.2129 51.3264 84.2129C51.1283 87.0166 50.3961 88.5211 48.6632 90.7164C48.4616 90.9781 48.26 91.2398 48.0522 91.5095C47.5467 92.1562 47.0174 92.7843 46.4842 93.4085C46.3244 93.4085 46.1646 93.4085 46 93.4085C46.2192 90.7353 46.8706 89.1059 48.3908 86.905C48.7347 86.3966 49.0787 85.8881 49.433 85.3642C49.7382 84.9843 50.0435 84.6043 50.3579 84.2129Z" fill="black"/>
</g>
<defs>
<clipPath id="clip0_50_50">
<rect width="241.139" height="177.137" fill="white"/>
</clipPath>
</defs>
</svg>
