<svg width="100" height="74" viewBox="0 0 100 74" fill="none" xmlns="http://www.w3.org/2000/svg">
<g clip-path="url(#clip0_10_43)">
<path d="M59.4382 0C59.637 0 59.8358 0 60.0406 0C60.0406 0.13253 60.0406 0.26506 60.0406 0.401606C60.2394 0.401606 60.4382 0.401606 60.643 0.401606C60.643 0.534136 60.643 0.666667 60.643 0.803213C60.8356 0.883973 60.8356 0.883973 61.0321 0.966365C61.4462 1.20482 61.4462 1.20482 61.647 1.80723C61.4486 2.24428 61.4486 2.24428 61.1395 2.74457C61.0302 2.92382 60.9208 3.10308 60.8081 3.28776C60.6332 3.56751 60.6332 3.56751 60.4548 3.85291C60.281 4.13616 60.281 4.13616 60.1038 4.42512C59.8168 4.89234 59.528 5.3583 59.2374 5.82329C60.1425 5.85879 60.846 5.86855 61.647 5.42169C62.0479 5.01434 62.0479 5.01434 62.4001 4.51807C62.9871 3.75395 63.5847 3.00909 64.2198 2.28414C64.3661 2.11589 64.5123 1.94763 64.663 1.77428C65.0607 1.40562 65.0607 1.40562 65.6631 1.40562C65.7294 1.33936 65.7956 1.27309 65.8639 1.20482C66.5416 1.22992 66.5416 1.22992 67.2695 1.40562C67.4683 1.73695 67.6671 2.06827 67.8719 2.40964C67.143 3.40361 66.4141 4.39759 65.6631 5.42169C65.9701 5.39502 66.2771 5.36836 66.5934 5.34089C69.1225 5.12939 71.6486 4.9701 74.1847 4.88203C74.4463 4.87234 74.7079 4.86265 74.9774 4.85266C75.2208 4.84501 75.4642 4.83736 75.715 4.82947C76.039 4.81911 76.039 4.81911 76.3696 4.80854C76.9081 4.81928 76.9081 4.81928 77.5105 5.02008C77.5105 5.15261 77.5105 5.28514 77.5105 5.42169C80.8237 5.55422 84.137 5.68675 87.5507 5.82329C87.6169 5.95582 87.6832 6.08835 87.7515 6.2249C87.5878 6.22385 87.424 6.2228 87.2554 6.22171C82.3964 6.19513 77.5489 6.29352 72.6912 6.4257C77.3629 6.5251 77.3629 6.5251 82.129 6.62651C82.129 6.69277 82.129 6.75904 82.129 6.82731C81.8208 6.83328 81.8208 6.83328 81.5064 6.83937C76.6194 6.93656 71.7463 7.12326 66.8679 7.42972C67.0082 7.42364 67.1485 7.41755 67.293 7.41128C70.0308 7.29437 72.762 7.19456 75.5025 7.22891C75.4362 7.36144 75.3699 7.49398 75.3017 7.63052C74.9497 7.70169 74.9497 7.70169 74.4862 7.73141C74.3134 7.74344 74.1405 7.75547 73.9624 7.76787C73.6807 7.78452 73.6807 7.78452 73.3932 7.80152C73.2019 7.81432 73.0105 7.82712 72.8133 7.84031C72.1996 7.88096 71.5857 7.91892 70.9718 7.95683C70.5568 7.98384 70.1417 8.01103 69.7266 8.0384C68.7069 8.10559 67.6871 8.16916 66.6671 8.23293C68.39 8.23293 70.1129 8.23293 71.888 8.23293C71.888 8.36546 71.888 8.49799 71.888 8.63454C71.6378 8.65361 71.3876 8.67268 71.1297 8.69234C70.1994 8.76447 69.2696 8.84261 68.3399 8.92255C67.9378 8.95628 67.5356 8.9884 67.1333 9.01884C66.5541 9.06295 65.9758 9.1129 65.3972 9.164C65.2179 9.17639 65.0386 9.18877 64.8539 9.20154C64.0067 9.28188 63.5636 9.3535 62.8759 9.88333C62.4471 10.4459 62.0776 11.003 61.7286 11.6183C61.6005 11.8425 61.4724 12.0667 61.3403 12.2976C61.2083 12.5324 61.0762 12.7672 60.9442 13.002C60.8135 13.2313 60.6828 13.4607 60.5481 13.697C59.8352 14.95 59.1312 16.2079 58.4342 17.4699C59.2851 16.6378 60.0976 15.7874 60.8752 14.8861C61.2913 14.4048 61.7134 13.929 62.1365 13.4538C62.2729 13.3006 62.4093 13.1473 62.5499 12.9895C62.6495 12.8776 62.7492 12.7658 62.8519 12.6506C63.6915 12.751 64.0654 13.198 64.6214 13.8052C64.7843 13.9781 64.9471 14.151 65.1148 14.3292C65.4623 14.8594 65.4623 14.8594 65.4709 15.3285C65.1758 16.0822 64.7715 16.7507 64.3579 17.4448C62.9097 19.9552 61.789 22.6988 61.0446 25.502C61.3259 25.2605 61.606 25.0176 61.8855 24.7741C62.0416 24.639 62.1977 24.5039 62.3585 24.3646C63.394 23.3802 63.9428 22.6655 64.2073 21.2475C64.9459 17.8443 66.8235 13.9454 69.6792 11.8474C70.3808 11.4966 71.1224 11.5334 71.888 11.6466C72.605 11.9968 73.0118 12.4956 73.3815 13.2028C73.8172 15.7203 72.295 18.0712 70.8965 20.0678C70.3506 20.7899 69.7606 21.4059 69.1019 22.0256C68.274 22.815 68.0156 23.3695 67.8719 24.498C71.6751 22.7686 73.6703 19.4165 75.2538 15.6697C75.5687 14.7971 75.5393 14.0054 75.4899 13.0899C75.4427 11.3804 75.7279 10.0843 76.559 8.57649C76.9081 8.23293 76.9081 8.23293 77.4689 8.14194C78.2317 8.24972 78.719 8.49342 79.3805 8.88554C79.6961 9.06725 79.6961 9.06725 80.0182 9.25263C80.5225 9.63855 80.5225 9.63855 80.7249 10.0449C80.7229 10.5644 80.564 10.7241 80.2339 11.1195C79.4597 12.2884 79.5374 13.5088 79.7193 14.8594C80.0246 15.9446 80.3706 17.0138 81.0661 17.9131C81.1518 18.0319 81.2375 18.1507 81.3258 18.2731C81.157 18.9648 80.8872 19.4445 80.3217 19.8795C80.2009 19.8896 80.08 19.8997 79.9554 19.9101C79.2491 20.1853 78.9868 20.8171 78.6275 21.4483C78.5486 21.5838 78.4698 21.7193 78.3886 21.859C77.416 23.5644 76.7077 25.1486 76.5065 27.1084C78.8843 25.0522 80.3113 22.917 81.6435 20.082C81.9236 19.4876 82.2126 18.8985 82.5047 18.31C83.5448 16.1974 84.4977 14.0639 85.3435 11.8658C85.7084 10.9347 86.0563 10.183 86.7474 9.43775C87.7579 9.51618 88.1671 9.97066 88.8308 10.7053C89.0104 10.8992 89.1901 11.0931 89.3751 11.2928C89.7595 11.8474 89.7595 11.8474 89.7556 12.2623C89.5181 12.7307 89.2471 13.1504 88.9437 13.5793C88.4864 14.1658 88.4864 14.1658 88.3539 14.8594C89.7766 13.6321 89.7766 13.6321 91.0271 12.2364C91.5667 11.6466 91.5667 11.6466 92.0358 11.5407C92.805 11.6929 93.1581 12.1728 93.6375 12.751C93.7287 12.8564 93.82 12.9617 93.914 13.0702C94.1381 13.3298 94.3588 13.5923 94.5788 13.8554C94.3555 14.4035 94.1318 14.7025 93.7003 15.1199C93.1087 15.7291 92.7386 16.3636 92.3699 17.1185C92.3016 17.2568 92.2333 17.3951 92.1629 17.5376C91.3485 19.2485 90.4432 21.3707 90.5627 23.2932C91.8448 21.6642 93.0527 20.0164 94.1772 18.2731C94.3097 18.4056 94.4422 18.5382 94.5788 18.6747C92.0916 22.9571 92.0916 22.9571 90.8263 24.8494C90.7441 24.9724 90.662 25.0953 90.5773 25.222C90.2617 25.6873 89.9572 26.1075 89.5587 26.506C88.4644 26.4513 87.7097 26.2561 86.7474 25.7028C86.588 22.6731 87.6396 19.8638 88.636 17.0516C88.7753 16.6699 88.7753 16.6699 88.7555 16.2651C86.2309 18.0093 85.498 21.0513 84.5955 23.8299C84.1617 25.1458 83.6608 26.3297 82.9322 27.51C82.4381 27.2516 81.9445 26.9921 81.4513 26.7319C81.311 26.6587 81.1707 26.5854 81.0261 26.5099C79.9656 25.9491 79.9656 25.9491 79.5185 25.502C78.3302 26.7846 77.1892 28.0809 76.1064 29.4553C75.7202 29.9002 75.4149 30.2358 74.9001 30.5221C74.4035 30.5072 74.4035 30.5072 73.8835 30.384C73.7114 30.346 73.5392 30.3079 73.3619 30.2687C72.892 30.1205 72.892 30.1205 72.2896 29.7189C71.4971 26.2121 74.4837 21.9292 76.1919 19.0543C76.5594 18.3931 76.5594 18.3931 76.7073 17.6707C76.5804 17.3996 76.4471 17.1313 76.3057 16.8675C76.2482 16.9715 76.1908 17.0755 76.1316 17.1826C74.9955 19.2265 73.8829 21.1655 72.2896 22.8916C72.1581 23.0368 72.0266 23.182 71.8911 23.3316C70.5597 24.735 68.8203 26.3178 66.7926 26.4056C65.8677 26.3871 65.4034 26.0621 64.7414 25.4424C64.4416 25.0802 64.26 24.7194 64.0567 24.2972C63.9747 24.3853 63.8927 24.4734 63.8082 24.5641C63.4351 24.9647 63.0619 25.3651 62.6887 25.7656C62.5597 25.9042 62.4306 26.0428 62.2977 26.1856C62.1728 26.3196 62.0479 26.4535 61.9192 26.5915C61.8046 26.7146 61.69 26.8376 61.5719 26.9643C61.4642 27.0782 61.3564 27.192 61.2454 27.3092C61.1439 27.4218 61.0425 27.5343 60.9379 27.6502C60.643 27.9116 60.643 27.9116 60.0704 27.9932C59.318 27.8961 58.9601 27.6638 58.3589 27.2088C58.1834 27.0784 58.0079 26.9479 57.8271 26.8135C57.6306 26.6613 57.6306 26.6613 57.4302 26.506C57.5316 25.0986 57.8481 23.9192 58.3463 22.6029C58.4167 22.4129 58.4871 22.2229 58.5597 22.0271C59.2449 20.2059 60.0248 18.431 60.8438 16.6667C57.3976 20.0015 54.8784 24.1753 54.0165 28.9157C53.1698 28.8159 52.7793 28.3641 52.2218 27.7485C51.4184 26.7134 51.4184 26.7134 51.3739 25.9648C51.5308 25.313 51.7599 24.7193 52.0085 24.0964C52.1046 23.8026 52.1986 23.5082 52.2909 23.2132C53.8159 18.4374 56.2287 13.9776 59.0366 9.83936C58.7228 9.85191 58.4091 9.86446 58.0953 9.87701C57.9206 9.884 57.7459 9.89098 57.5659 9.89819C56.5491 10.1669 56.0549 10.9534 55.5437 11.8199C55.3798 12.1166 55.2181 12.4145 55.0582 12.7134C54.9709 12.8742 54.8837 13.0351 54.7938 13.2009C54.5325 13.6857 54.2743 14.172 54.0165 14.6586C53.9463 14.7889 53.8761 14.9192 53.8038 15.0534C51.668 19.029 50.1273 23.3086 48.7596 27.5989C48.5107 28.3748 48.252 29.1473 47.9924 29.9197C47.0635 29.9197 46.7926 29.7222 46.0346 29.2169C45.8368 29.0864 45.6391 28.9559 45.4353 28.8215C45.2101 28.6693 45.2101 28.6693 44.9804 28.5141C44.4866 29.1075 44.0338 29.718 43.5998 30.3558C43.4461 30.5806 43.4461 30.5806 43.2892 30.81C43.0765 31.1222 42.8653 31.4354 42.6554 31.7497C42.5529 31.8985 42.4504 32.0473 42.3448 32.2007C42.2532 32.3362 42.1616 32.4718 42.0672 32.6115C41.7067 32.9968 41.4845 33.076 40.9643 33.1325C40.4678 32.9466 40.4678 32.9466 39.9477 32.6682C39.7756 32.5778 39.6035 32.4875 39.4261 32.3944C39.0597 32.1871 38.7042 31.9604 38.3539 31.7269C38.1898 30.4968 38.5852 29.5698 39.0567 28.4639C39.1277 28.2907 39.1987 28.1175 39.2719 27.939C39.6469 27.0296 40.0374 26.1279 40.4388 25.2298C40.5142 25.0584 40.5897 24.887 40.6674 24.7104C40.8124 24.3825 40.9606 24.056 41.1122 23.7311C41.5172 22.8481 41.5172 22.8481 41.4208 21.9056C41.3364 21.7671 41.2521 21.6286 41.1651 21.4859C41.0657 21.2871 41.0657 21.2871 40.9643 21.0843C40.9108 21.1833 40.8574 21.2823 40.8023 21.3843C38.4056 25.8043 38.4056 25.8043 37.5507 26.7068C37.3519 26.7068 37.1531 26.7068 36.9482 26.7068C37.0647 25.7109 37.5216 24.9673 38.0025 24.1089C39.4845 21.3376 40.0982 19.3517 39.9235 16.1882C39.8595 14.6279 39.8595 14.6279 40.1768 14.0924C40.4497 13.8186 40.4497 13.8186 40.9643 13.4538C41.0306 13.3875 41.0968 13.3213 41.1651 13.253C42.379 13.0709 43.1852 13.6398 44.1772 14.257C43.997 15.3896 43.997 15.3896 43.872 15.8274C43.5106 17.4671 43.6494 19.3639 44.378 20.8835C44.8924 21.4485 44.8924 21.4485 45.382 21.8875C45.382 22.8677 45.1632 23.0413 44.5537 23.7826C42.9263 25.8418 42.0406 28.1281 41.7675 30.7229C41.9 30.7229 42.0326 30.7229 42.1691 30.7229C42.2162 30.6204 42.2633 30.5179 42.3119 30.4123C42.5922 29.8787 42.9117 29.3771 43.2381 28.8709C44.9991 26.1285 46.3018 23.25 47.5805 20.2581C49.005 16.9289 50.5877 13.679 52.2093 10.4418C49.7702 10.3782 47.3489 10.5721 44.9176 10.743C44.4942 10.7721 44.0707 10.8011 43.6473 10.83C42.619 10.9005 41.5909 10.972 40.5627 11.0442C41.2786 9.59056 42.0778 8.17821 43.5747 7.42972C43.9103 7.385 44.2473 7.35051 44.5845 7.32113C44.795 7.30234 45.0054 7.28355 45.2223 7.26419C45.5646 7.23469 45.5646 7.23469 45.9138 7.2046C46.3938 7.16137 46.8739 7.1181 47.3539 7.07478C48.1132 7.0072 48.8724 6.94013 49.6318 6.87393C50.363 6.80987 51.094 6.74381 51.8249 6.67749C52.0523 6.65823 52.2797 6.63897 52.514 6.61913C52.7257 6.59971 52.9374 6.58028 53.1556 6.56027C53.3416 6.54393 53.5277 6.5276 53.7194 6.51076C54.7812 6.32937 55.1824 5.85579 55.8237 5.02008C55.9767 4.87668 56.1297 4.73328 56.2873 4.58553C56.9287 3.90973 57.3798 3.19296 57.8569 2.39709C59.0672 0.403458 59.0672 0.403458 59.4382 0ZM65.6631 5.82329C65.6631 5.88956 65.6631 5.95582 65.6631 6.0241C67.4817 6.05457 69.2727 5.96192 71.0848 5.82329C71.0848 5.75703 71.0848 5.69076 71.0848 5.62249C69.2648 5.60194 67.474 5.60844 65.6631 5.82329ZM63.8559 6.0241C63.8559 6.09036 63.8559 6.15663 63.8559 6.2249C64.2535 6.2249 64.6511 6.2249 65.0607 6.2249C65.0607 6.15863 65.0607 6.09237 65.0607 6.0241C64.6631 6.0241 64.2655 6.0241 63.8559 6.0241ZM72.0888 15.4618C71.1747 16.3817 70.4618 17.3674 69.8172 18.4864C69.7157 18.6602 69.7157 18.6602 69.6121 18.8376C69.1616 19.6409 68.8975 20.3992 68.6752 21.2851C70.242 19.8132 71.5338 18.0939 72.2896 16.0643C72.2233 15.8655 72.1571 15.6667 72.0888 15.4618ZM90.1611 23.494C90.3619 23.8956 90.3619 23.8956 90.3619 23.8956L90.1611 23.494Z" fill="white"/>
<path d="M50.8037 28.9158C51.7425 29.3502 52.5582 29.9153 53.2134 30.723C53.2254 31.4593 53.1372 31.8793 52.8118 32.5302C53.4744 32.464 54.1371 32.3977 54.8198 32.3294C54.8861 32.462 54.9523 32.5945 55.0206 32.731C55.2142 32.7142 55.4078 32.6974 55.6073 32.68C55.9878 32.6494 55.9878 32.6494 56.376 32.6181C56.6276 32.5971 56.8792 32.5761 57.1384 32.5545C57.7103 32.5345 58.1015 32.5491 58.6351 32.731C58.6351 32.5985 58.6351 32.466 58.6351 32.3294C60.3579 32.0644 62.0808 31.7993 63.8559 31.5262C63.9222 31.725 63.9885 31.9238 64.0567 32.1286C64.2902 32.0851 64.5237 32.0416 64.7643 31.9968C67.0288 31.596 69.1891 31.4521 71.4865 31.5262C71.4865 31.5925 71.4865 31.6587 71.4865 31.727C68.1732 32.1909 64.86 32.6547 61.4463 33.1326C64.6657 32.6705 67.8704 32.2623 71.111 31.9953C71.4532 31.967 71.7954 31.9381 72.1374 31.9084C72.6197 31.8669 73.1021 31.8286 73.5847 31.7913C73.7294 31.7786 73.8741 31.7659 74.0232 31.7528C74.7828 31.6986 75.0485 31.6921 75.7033 32.1286C75.3057 32.228 75.3057 32.228 74.9001 32.3294C75.0939 32.3154 75.0939 32.3154 75.2915 32.3012C76.8944 32.2372 78.2163 32.5974 79.7194 33.1326C79.6531 33.3314 79.5869 33.5302 79.5186 33.735C79.2578 33.7531 78.997 33.7711 78.7283 33.7897C72.9871 34.1915 67.2749 34.6896 61.5763 35.504C60.386 35.6728 59.1951 35.8191 58.0001 35.9506C57.2004 36.0411 56.4026 36.1437 55.6047 36.2489C55.2291 36.2959 54.8528 36.3379 54.476 36.3744C52.5232 36.5107 52.5232 36.5107 50.9015 37.4712C50.3716 38.2517 50.0365 39.0936 49.7318 39.9824C49.5659 40.4557 49.3513 40.8953 49.1244 41.342C47.3937 45.0627 46.0239 48.958 44.7671 52.8616C44.7119 53.0321 44.6568 53.2027 44.5999 53.3784C44.164 54.7695 43.7756 56.1662 43.7756 57.6306C44.3327 57.1145 44.8595 56.5752 45.382 56.0242C45.543 55.8609 45.7041 55.6975 45.8699 55.5293C47.1176 54.1037 47.3903 52.9468 47.5853 51.1041C47.7362 49.6852 48.0141 48.3416 48.3815 46.963C48.43 46.7777 48.4784 46.5924 48.5284 46.4015C48.8813 45.0969 49.3207 43.8338 49.7997 42.5704C50.432 42.8656 50.7203 43.073 51.0798 43.6748C51.5524 44.383 51.9634 44.6017 52.8118 44.7792C52.5124 45.7822 52.2111 46.7845 51.9011 47.7842C50.9076 50.9403 50.9076 50.9403 50.6029 54.217C50.955 53.6777 51.3061 53.1379 51.6571 52.598C51.7558 52.447 51.8544 52.2959 51.956 52.1403C52.2442 51.6965 52.5288 51.2505 52.8118 50.8033C52.8902 50.6819 52.9687 50.5604 53.0495 50.4353C53.588 49.5598 53.8097 48.7456 54.004 47.7536C54.7224 44.4517 56.2713 40.8058 59.1331 38.8093C60.273 38.1784 61.1587 38.0486 62.4503 38.1527C62.6196 38.4696 62.7865 38.7878 62.9523 39.1065C63.0455 39.2836 63.1387 39.4606 63.2347 39.6431C63.4543 40.1608 63.4543 40.1608 63.4543 40.964C62.9573 41.0634 62.9573 41.0634 62.4503 41.1648C62.4243 41.4098 62.4243 41.4098 62.3978 41.6597C61.8787 45.893 60.3805 50.6109 57.5055 53.853C57.0286 54.217 57.0286 54.217 56.5611 54.2931C55.8258 54.1888 55.5301 53.8704 54.9955 53.3636C54.8252 53.2051 54.6549 53.0467 54.4794 52.8835C54.0813 52.476 53.7408 52.0719 53.4142 51.6065C53.3168 51.803 53.2195 51.9995 53.1192 52.2019C51.1382 56.1121 51.1382 56.1121 49.6836 56.5992C49.1973 56.6266 49.1973 56.6266 48.6827 56.1874C48.5212 56.001 48.3597 55.8146 48.1933 55.6226C47.927 55.3534 47.6595 55.0854 47.3901 54.8194C47.3244 54.9083 47.2588 54.9972 47.1912 55.0888C44.8865 58.2044 44.8865 58.2044 43.8172 59.3414C43.5282 59.66 43.5282 59.66 43.374 60.2411C41.3498 60.0352 41.3498 60.0352 40.7636 59.6387C40.3742 58.529 40.2639 57.3927 40.1612 56.225C40.0952 56.3757 40.0291 56.5263 39.9611 56.6815C39.2461 58.2201 38.412 59.4953 37.1491 60.6427C36.4009 60.8921 35.7174 60.9509 34.9403 60.8435C33.9158 60.3022 33.299 59.7348 32.9322 58.6346C32.8523 58.7581 32.7723 58.8816 32.6899 59.0088C32.5835 59.1711 32.4771 59.3334 32.3675 59.5006C32.2627 59.6614 32.1578 59.8221 32.0498 59.9877C31.3319 60.999 31.3319 60.999 30.6622 61.1455C30.4919 61.1494 30.3216 61.1532 30.1461 61.1572C29.8922 61.17 29.8922 61.17 29.6331 61.1831C29.0177 61.0176 28.6907 60.7505 28.3083 60.2419C27.9055 59.412 27.9755 58.5219 28 57.6181C28.0035 57.4119 28.007 57.2056 28.0106 56.9932C28.0872 54.5238 28.6448 52.4942 30.3218 50.6025C30.9124 50.0751 31.5356 49.7015 32.3298 49.5985C32.7385 49.7773 32.7385 49.7773 33.1456 50.0503C33.3479 50.1823 33.3479 50.1823 33.5543 50.317C33.9179 50.5888 34.2274 50.8752 34.5387 51.2049C34.5884 51.0393 34.6381 50.8736 34.6893 50.7029C34.9778 49.8949 35.3466 49.1528 35.7435 48.3937C35.5424 48.4348 35.3412 48.476 35.134 48.5184C34.8645 48.5731 34.5949 48.6277 34.3253 48.6823C34.1934 48.7094 34.0616 48.7364 33.9257 48.7643C33.2715 48.8964 32.63 49.0087 31.9667 49.091C31.2968 49.1565 31.2968 49.1565 30.7234 49.5985C29.4277 49.5076 29.4277 49.5076 28.9162 48.9961C28.8439 48.4875 28.7952 48.0011 28.7656 47.4901C28.7544 47.3516 28.7433 47.2131 28.7319 47.0704C28.7086 46.709 28.7104 46.3462 28.7154 45.984C29.2012 45.4982 29.4036 45.5047 30.0732 45.4256C30.2648 45.4015 30.4565 45.3774 30.654 45.3526C30.855 45.3291 31.056 45.3055 31.2631 45.2812C32.5326 45.1295 33.7089 44.9307 34.9403 44.5784C35.1323 44.5867 35.3244 44.595 35.5223 44.6035C36.4226 44.5672 37.0852 44.1821 37.877 43.7752C38.1759 43.6232 38.4756 43.4725 38.7759 43.3234C38.9071 43.2561 39.0382 43.1888 39.1733 43.1195C39.5588 42.972 39.5588 42.972 40.362 42.972C40.48 43.1646 40.48 43.1646 40.6004 43.3611C41.1251 43.9582 41.6308 43.9065 42.3974 43.9603C42.5209 43.9655 42.6444 43.9707 42.7716 43.976C42.8379 44.2411 42.9041 44.5061 42.9724 44.7792C42.8012 44.8712 42.8012 44.8712 42.6265 44.9651C41.2227 45.7971 40.5294 46.7744 39.7596 48.1929C39.6394 48.4113 39.5193 48.6298 39.3956 48.8549C37.8614 51.7779 36.542 55.2775 36.7475 58.6346C38.2844 57.5555 39.0785 56.0344 39.9604 54.4178C40.0887 54.1877 40.2171 53.9575 40.3494 53.7205C40.9259 52.5491 41.285 51.2875 41.6823 50.047C43.019 45.8847 44.5819 41.8168 46.1853 37.7511C41.3849 38.591 41.3849 38.591 36.6197 39.6062C35.9949 39.7477 35.3724 39.8618 34.7395 39.9599C35.0201 38.6171 35.5536 37.3123 36.5467 36.3455C38.1601 35.3758 40.2912 35.2053 42.1203 34.941C42.9462 34.8192 43.7692 34.6834 44.5914 34.5383C44.7555 34.5093 44.9196 34.4803 45.0886 34.4505C46.7544 34.135 48.1268 33.8645 49.1997 32.4557C49.7554 31.5233 50.1626 30.5576 50.4768 29.5194C50.6029 29.1166 50.6029 29.1166 50.8037 28.9158ZM70.2816 32.5302C70.2816 32.5965 70.2816 32.6628 70.2816 32.731C70.878 32.731 71.4744 32.731 72.0889 32.731C72.0889 32.6648 72.0889 32.5985 72.0889 32.5302C71.4925 32.5302 70.8961 32.5302 70.2816 32.5302ZM68.4744 32.731C68.4744 32.7973 68.4744 32.8636 68.4744 32.9318C69.0045 32.9318 69.5347 32.9318 70.0808 32.9318C70.0808 32.8656 70.0808 32.7993 70.0808 32.731C69.5507 32.731 69.0206 32.731 68.4744 32.731ZM66.868 32.9318C66.868 32.9981 66.868 33.0644 66.868 33.1326C67.3318 33.1326 67.7957 33.1326 68.2736 33.1326C68.2736 33.0664 68.2736 33.0001 68.2736 32.9318C67.8098 32.9318 67.3459 32.9318 66.868 32.9318ZM74.4985 32.9318C74.4985 32.9981 74.4985 33.0644 74.4985 33.1326C75.2937 33.1326 76.0889 33.1326 76.9081 33.1326C76.9081 33.0664 76.9081 33.0001 76.9081 32.9318C76.113 32.9318 75.3178 32.9318 74.4985 32.9318ZM65.2616 33.1326C65.2616 33.1989 65.2616 33.2652 65.2616 33.3334C65.6592 33.3334 66.0567 33.3334 66.4664 33.3334C66.4664 33.2672 66.4664 33.2009 66.4664 33.1326C66.0688 33.1326 65.6712 33.1326 65.2616 33.1326ZM72.2897 33.1326C72.2897 33.1989 72.2897 33.2652 72.2897 33.3334C72.8198 33.3334 73.3499 33.3334 73.8961 33.3334C73.8961 33.2672 73.8961 33.2009 73.8961 33.1326C73.366 33.1326 72.8359 33.1326 72.2897 33.1326ZM58.6351 33.3334C58.6351 33.3997 58.6351 33.466 58.6351 33.5342C59.0326 33.5342 59.4302 33.5342 59.8399 33.5342C59.8399 33.468 59.8399 33.4017 59.8399 33.3334C59.4423 33.3334 59.0447 33.3334 58.6351 33.3334ZM63.8559 33.3334C63.8559 33.3997 63.8559 33.466 63.8559 33.5342C64.1873 33.5342 64.5186 33.5342 64.86 33.5342C64.86 33.468 64.86 33.4017 64.86 33.3334C64.5286 33.3334 64.1973 33.3334 63.8559 33.3334ZM69.88 33.3334C69.88 33.3997 69.88 33.466 69.88 33.5342C70.2776 33.5342 70.6752 33.5342 71.0849 33.5342C71.0849 33.468 71.0849 33.4017 71.0849 33.3334C70.6873 33.3334 70.2897 33.3334 69.88 33.3334ZM57.2294 33.5342C57.2294 33.6005 57.2294 33.6668 57.2294 33.735C57.5608 33.735 57.8921 33.735 58.2335 33.735C58.2335 33.6688 58.2335 33.6025 58.2335 33.5342C57.9021 33.5342 57.5708 33.5342 57.2294 33.5342ZM62.4503 33.5342C63.2535 33.735 63.2535 33.735 63.2535 33.735L62.4503 33.5342ZM60.0485 42.7273C58.1507 44.7923 56.9855 47.885 57.0161 50.6653C57.0179 50.8799 57.0197 51.0944 57.0216 51.3155C57.0239 51.4778 57.0262 51.6401 57.0286 51.8073C57.868 51.5276 58.0788 50.951 58.4845 50.2135C58.5633 50.0716 58.6421 49.9298 58.7233 49.7836C59.9575 47.4988 61.3781 44.6194 61.2455 41.968C60.7623 41.968 60.3931 42.4267 60.0485 42.7273ZM33.3339 52.8114C32.0578 54.5478 30.9089 56.6451 30.7234 58.8354C30.7855 59.1044 30.8519 59.3723 30.9242 59.6387C32.4652 57.4443 33.5196 55.7316 33.7355 53.0122C33.6029 52.9459 33.4704 52.8796 33.3339 52.8114Z" fill="white"/>
<path d="M37.3493 30.522C37.5481 30.522 37.7469 30.522 37.9517 30.522C37.6616 31.3439 37.2592 31.9904 36.7571 32.701C36.6018 32.9237 36.4467 33.1465 36.2915 33.3693C36.0477 33.7171 35.8033 34.0644 35.5577 34.411C35.3198 34.7475 35.0845 35.0858 34.8494 35.4244C34.6372 35.7255 34.6372 35.7255 34.4206 36.0328C34.2799 36.2869 34.2799 36.2869 34.1364 36.5461C34.2027 36.7449 34.269 36.9437 34.3372 37.1485C33.6609 38.8037 32.5329 40.297 31.5134 41.7544C31.3043 42.0598 31.3043 42.0598 31.091 42.3713C30.9548 42.5671 30.8185 42.763 30.6781 42.9647C30.5564 43.1399 30.4347 43.3152 30.3094 43.4957C29.9196 43.9758 29.9196 43.9758 29.4052 44.38C28.8802 44.8078 28.6557 45.1471 28.3539 45.7477C28.2578 45.9357 28.1617 46.1237 28.0627 46.3174C27.9631 46.5179 27.8635 46.7185 27.7609 46.9251C27.5459 47.3495 27.3307 47.7739 27.1154 48.1981C27.0108 48.4055 26.9063 48.6128 26.7986 48.8263C26.5586 49.2947 26.3118 49.7557 26.0533 50.214C24.5435 52.9011 23.4003 55.7655 22.2076 58.6029C21.8668 59.4138 21.5223 60.2227 21.1713 61.0292C20.3415 62.9428 19.6515 64.862 19.0762 66.8674C17.8154 66.6418 16.5649 66.2871 15.5747 65.4492C14.316 63.0828 14.5499 60.7728 15.1856 58.2642C15.2659 57.9356 15.2659 57.9356 15.3477 57.6004C15.5174 56.907 15.6903 56.2145 15.8633 55.522C16.0358 54.8236 16.2076 54.125 16.379 53.4264C16.4855 52.9931 16.5928 52.56 16.7008 52.1271C16.749 51.9326 16.7973 51.7381 16.847 51.5377C16.8898 51.3663 16.9326 51.1948 16.9767 51.0182C17.0825 50.6079 17.0825 50.6079 17.0682 50.2007C17.0139 50.3053 16.9596 50.4099 16.9036 50.5177C16.641 51.023 16.3777 51.528 16.1143 52.033C16.0145 52.2249 15.9146 52.4169 15.8117 52.6146C15.3174 53.5601 14.8175 54.5002 14.2891 55.4271C11.4507 60.4252 8.24486 66.3845 7.40921 72.1314C7.1796 72.8432 6.83539 73.0838 6.22478 73.4939C5.86083 73.3809 5.86083 73.3809 5.42157 73.0923C4.97613 72.2344 4.73512 71.4393 4.61836 70.4818C4.3885 70.4508 4.3885 70.4508 4.154 70.4191C3.56435 70.2682 3.40367 70.1238 3.01193 69.6786C2.81314 69.5461 2.61434 69.4135 2.40952 69.277C2.21006 67.696 2.69304 66.6423 3.40177 65.2507C3.5051 65.041 3.60842 64.8314 3.71488 64.6153C4.05011 63.9376 4.3905 63.2627 4.73131 62.5877C4.96331 62.1223 5.19511 61.6568 5.42672 61.1912C7.62819 56.7798 9.89353 52.411 12.4497 48.1927C12.659 47.8455 12.8681 47.4983 13.0772 47.151C13.1691 46.9993 13.261 46.8476 13.3556 46.6913C13.6584 46.1779 13.9483 45.6581 14.2378 45.1372C14.9531 43.8582 15.7192 42.6867 16.6665 41.5661C16.8595 41.3361 17.0525 41.106 17.2454 40.8759C17.7859 40.2334 18.3299 39.5939 18.8754 38.9557C19.1736 39.0551 19.1736 39.0551 19.4778 39.1565C18.782 40.5481 18.782 40.5481 18.0722 41.9678C19.3056 40.3306 20.3496 38.7779 21.034 36.8347C21.9149 34.3558 21.9149 34.3558 23.0923 33.7348C23.6979 33.7348 23.9672 33.8711 24.4979 34.1364C24.5807 34.0412 24.6635 33.9459 24.7489 33.8478C25.1542 33.4859 25.3584 33.3497 25.9035 33.3332C26.3679 33.6344 26.3679 33.6344 26.7067 34.1364C26.627 35.1312 26.3788 36.0254 26.0655 36.9696C26.0211 37.1047 25.9767 37.2397 25.9309 37.3789C25.7851 37.8212 25.6376 38.2629 25.4901 38.7047C25.3877 39.0144 25.2854 39.3242 25.1832 39.634C24.9147 40.4472 24.6448 41.2599 24.3746 42.0726C23.9425 43.3729 23.5126 44.674 23.0824 45.9749C22.9326 46.4274 22.7823 46.8797 22.6319 47.332C22.5392 47.6116 22.4465 47.8911 22.3538 48.1707C22.2733 48.413 22.1927 48.6554 22.1097 48.9051C21.8864 49.6014 21.6828 50.2997 21.4858 51.0039C21.5573 50.881 21.6288 50.7582 21.7025 50.6316C22.5658 49.1484 23.4308 47.6661 24.2971 46.1846C24.4191 45.9758 24.5412 45.767 24.667 45.5519C25.0116 44.9634 25.357 44.3754 25.7027 43.7875C25.806 43.611 25.9094 43.4344 26.0158 43.2525C26.5127 42.4095 27.0198 41.5736 27.5476 40.7496C27.6885 40.5288 27.6885 40.5288 27.8323 40.3036C28.1123 39.9597 28.1123 39.9597 28.7147 39.7589C29.0565 39.3053 29.3709 38.8529 29.6811 38.3784C30.5543 37.0746 31.4579 35.799 32.3919 34.538C32.5072 34.3822 32.6225 34.2264 32.7412 34.0659C32.9632 33.7666 33.1858 33.4677 33.409 33.1693C33.6326 32.8683 33.8536 32.5654 34.0724 32.261C34.1792 32.1137 34.286 31.9664 34.3961 31.8146C34.4911 31.6819 34.5861 31.5491 34.6841 31.4123C34.7684 31.3173 34.8527 31.2223 34.9396 31.1244C35.0722 31.1244 35.2047 31.1244 35.3412 31.1244C35.0704 31.859 34.7387 32.4866 34.3137 33.1434C34.1918 33.3331 34.0699 33.5229 33.9443 33.7184C33.8172 33.9143 33.6901 34.1102 33.5591 34.3121C32.7852 35.5105 32.017 36.7036 31.3252 37.9517C31.3927 37.858 31.4602 37.7643 31.5298 37.6677C33.0584 35.5464 34.5946 33.431 36.1445 31.3252C36.3433 31.3915 36.542 31.4577 36.7469 31.526C36.8338 31.3603 36.9208 31.1947 37.0104 31.024C37.1222 30.8583 37.2341 30.6927 37.3493 30.522ZM36.1445 31.9276C36.3453 32.3292 36.3453 32.3292 36.3453 32.3292L36.1445 31.9276ZM35.7429 32.53C35.9437 32.9316 35.9437 32.9316 35.9437 32.9316L35.7429 32.53ZM30.9236 38.1525C31.1244 38.5541 31.1244 38.5541 31.1244 38.5541L30.9236 38.1525ZM17.269 42.771C17.4698 43.1726 17.4698 43.1726 17.4698 43.1726L17.269 42.771ZM21.0842 51.4055C21.285 51.8071 21.285 51.8071 21.285 51.8071L21.0842 51.4055Z" fill="white"/>
<path d="M44.98 0.200925C44.7148 0.980249 44.4023 1.45451 43.8178 2.03075C43.6615 2.1863 43.5053 2.34185 43.3443 2.50211C43.0905 2.75032 43.0905 2.75032 42.8316 3.00354C42.6572 3.17659 42.4828 3.34964 42.3031 3.52794C41.7452 4.08119 41.1852 4.63236 40.6251 5.18335C40.0688 5.73253 39.513 6.28214 38.9578 6.83232C38.6124 7.17427 38.2665 7.5156 37.9198 7.85619C36.9474 8.81668 36.0285 9.80472 35.1406 10.8435C34.8486 11.1663 34.5559 11.4886 34.2621 11.8099C33.4801 12.6764 32.7377 13.5686 32.0039 14.476C31.5805 14.9939 31.1501 15.504 30.7151 16.0121C29.5301 17.3979 28.398 18.8184 27.3093 20.2812C27.2137 20.4097 27.118 20.5382 27.0195 20.6705C24.1257 24.5768 21.2902 28.5832 19.1723 32.9708C18.9864 33.3559 18.7993 33.7403 18.6121 34.1247C18.3637 34.635 18.1208 35.1474 17.8809 35.6617C17.7673 35.8969 17.6537 36.1322 17.5366 36.3745C17.4367 36.5865 17.3367 36.7984 17.2337 37.0168C16.6963 37.7998 16.0482 38.0701 15.1356 38.2657C14.5225 38.1205 14.3975 37.8328 14.0722 37.318C13.6783 36.6453 13.3288 35.9552 12.9895 35.2536C12.9149 35.108 12.8402 34.9624 12.7632 34.8124C12.6937 34.6684 12.6242 34.5243 12.5526 34.3759C12.4894 34.2479 12.4261 34.1199 12.361 33.9881C12.0757 32.8314 12.5676 31.7295 12.9997 30.6689C13.6425 29.0224 14.1215 27.3506 14.5704 25.6425C14.6969 25.1611 14.8257 24.6803 14.9548 24.1997C15.4272 22.4324 15.8697 20.6618 16.2651 18.8756C12.9586 23.781 9.86129 28.7372 7.02818 33.9359C6.90889 34.1546 6.78959 34.3732 6.66668 34.5986C5.28441 37.1266 5.28441 37.1266 3.94083 39.6752C3.27394 40.9654 2.64082 42.1385 1.6065 43.1728C1.54023 43.1728 1.47397 43.1728 1.40569 43.1728C1.38369 43.0175 1.36169 42.8622 1.33902 42.7022C1.17021 41.5932 0.972602 40.5822 0.548357 39.5442C0.0260293 38.1644 -0.307022 36.6523 0.294215 35.2654C0.952723 33.9946 1.7893 32.8298 2.59796 31.6517C2.7706 31.3988 2.94321 31.1458 3.1158 30.8928C4.25297 29.2298 5.41627 27.5878 6.60461 25.961C7.29836 25.0096 7.97335 24.0455 8.64716 23.0799C8.76487 22.9113 8.88258 22.7427 9.00386 22.569C9.23717 22.2347 9.47046 21.9005 9.70373 21.5662C11.146 19.5015 12.6045 17.4492 14.0836 15.4108C14.734 14.5131 15.3748 13.6094 16.0091 12.7002C19.3971 7.84841 19.3971 7.84841 20.8836 7.22904C22.3435 7.16716 23.4502 7.50271 24.6989 8.23305C24.8191 9.58383 24.3904 10.6163 23.8957 11.8601C23.7284 12.294 23.5614 12.7281 23.3944 13.1621C23.3098 13.38 23.2252 13.5978 23.138 13.8222C21.8037 17.2651 20.6916 20.7466 19.6788 24.2973C21.4643 22.0052 23.2445 19.7093 25.0111 17.4025C26.0295 16.0738 27.0602 14.7561 28.1125 13.4539C28.2451 13.5202 28.3776 13.5865 28.5141 13.6547C28.5804 13.6547 28.6467 13.6547 28.7149 13.6547C29.0897 13.2325 29.456 12.8065 29.8193 12.3746C30.7001 11.337 31.5909 10.3116 32.5067 9.30453C32.7842 8.99827 33.0594 8.68982 33.3318 8.37895C34.7956 6.71639 36.3768 5.17078 37.9519 3.61458C37.9519 4.32735 37.8543 4.39455 37.3808 4.89078C37.2042 5.07812 37.2042 5.07812 37.0239 5.26924C36.8994 5.39828 36.7749 5.52732 36.6467 5.66026C36.5222 5.79163 36.3976 5.92299 36.2694 6.05834C35.9614 6.38293 35.652 6.70613 35.3414 7.02823C36.4911 6.12575 37.4874 5.13473 38.4413 4.02874C40.4455 1.71243 40.4455 1.71243 41.3655 1.40574C41.0689 2.09892 40.6752 2.54021 40.1356 3.06237C39.9901 3.20422 39.8447 3.34607 39.6948 3.49222C39.5278 3.65218 39.5278 3.65218 39.3575 3.81538C40.3352 3.06751 41.1568 2.20609 42.0048 1.31711C42.9456 0.462425 43.7076 0.110037 44.98 0.200925ZM37.1487 6.02422C37.0161 6.28928 36.8836 6.55434 36.7471 6.82743C36.9459 6.6949 37.1446 6.56237 37.3495 6.42582C37.2832 6.29329 37.2169 6.16076 37.1487 6.02422ZM34.9398 7.42984C34.6748 7.6949 34.4097 7.95996 34.1366 8.23305C34.2029 8.36558 34.2691 8.49811 34.3374 8.63466C34.6025 8.3696 34.8675 8.10454 35.1406 7.83145C35.0744 7.69892 35.0081 7.56639 34.9398 7.42984ZM35.3414 8.03225C35.2089 8.29731 35.0764 8.56237 34.9398 8.83546C35.1386 8.70293 35.3374 8.5704 35.5422 8.43386C35.476 8.30133 35.4097 8.1688 35.3414 8.03225ZM33.1326 9.43787C33.3334 9.83948 33.3334 9.83948 33.3334 9.83948L33.1326 9.43787ZM27.9117 14.2571C28.1125 14.6588 28.1125 14.6588 28.1125 14.6588L27.9117 14.2571Z" fill="white"/>
<path d="M99.5978 17.8716C99.7966 17.971 99.7966 17.971 99.9994 18.0724C99.0054 19.5965 98.0114 21.1206 96.9874 22.6909C97.8085 21.6186 97.8085 21.6186 98.531 20.482C98.618 20.3495 98.705 20.217 98.7946 20.0804C98.9934 20.0804 99.1922 20.0804 99.397 20.0804C99.1907 20.6357 98.978 21.1115 98.6565 21.6115C98.5696 21.7689 98.4826 21.9263 98.393 22.0884C98.4592 22.2872 98.5255 22.486 98.5938 22.6909C98.4134 23.1199 98.4134 23.1199 98.1169 23.6321C97.874 24.0545 97.6314 24.4771 97.389 24.8997C97.3227 25.0148 97.2564 25.1299 97.1881 25.2485C96.0065 27.305 94.9089 29.3918 93.8749 31.5262C93.7641 31.7544 93.7641 31.7544 93.6511 31.9872C91.5651 36.2996 89.6975 40.8672 88.7544 45.5824C91.2394 45.1848 91.2394 45.1848 93.7745 44.7792C93.8408 44.978 93.907 45.1768 93.9753 45.3816C93.099 45.7959 92.2307 46.1704 91.3092 46.4711C91.1575 46.5213 91.0058 46.5715 90.8495 46.6232C90.5439 46.7231 90.2374 46.82 89.9299 46.9136C89.1812 47.1601 88.8355 47.2809 88.3512 47.9301C88.2526 48.1596 88.2526 48.1596 88.152 48.3937C87.4245 48.1275 86.8197 47.8026 86.1816 47.3646C86.023 47.2564 85.8643 47.1482 85.7008 47.0367C85.582 46.9544 85.4632 46.8721 85.3408 46.7872C85.2895 46.9288 85.2383 47.0704 85.1855 47.2163C84.7372 48.2627 84.1268 49.1837 83.3327 50.0001C82.5421 50.3033 81.9284 50.0854 81.1615 49.7616C80.2163 48.9784 80.0364 48.1844 79.9191 46.988C79.8078 47.1283 79.6965 47.2686 79.5818 47.4132C79.4363 47.5959 79.2908 47.7787 79.141 47.967C78.9965 48.1487 78.8521 48.3304 78.7033 48.5176C78.3127 48.9961 78.3127 48.9961 77.911 49.3977C76.9884 49.4899 76.4825 49.4734 75.6269 49.109C75.0651 48.5606 75.0078 48.3945 74.8661 47.6587C74.8173 47.4141 74.8173 47.4141 74.7675 47.1645C74.7446 47.04 74.7218 46.9155 74.6982 46.7872C74.6244 46.8793 74.5506 46.9714 74.4745 47.0662C74.1355 47.4883 73.7956 47.9096 73.4557 48.3309C73.3396 48.4757 73.2235 48.6206 73.1039 48.7698C71.4753 50.7848 71.4753 50.7848 70.4562 51.3555C69.2239 51.435 68.4228 50.7275 67.4693 50.0001C67.2705 49.8013 67.2705 49.8013 67.0677 49.5985C67.1394 48.7349 67.3925 48.016 67.736 47.2257C67.8305 47.0058 67.9249 46.7859 68.0223 46.5594C68.1214 46.3322 68.2206 46.1051 68.3227 45.8711C69.0834 44.1148 69.8077 42.3539 70.4813 40.5623C69.5533 41.4583 68.6447 42.3654 67.8081 43.3485C67.6229 43.5651 67.6229 43.5651 67.434 43.7862C66.2518 45.6949 65.8299 48.0833 65.2604 50.2299C65.1942 50.4704 65.1279 50.7109 65.0596 50.9586C65.0017 51.1749 64.9437 51.3911 64.8839 51.6139C64.6318 52.2782 64.3519 52.7063 63.8548 53.2129C63.0063 53.366 62.5578 53.4151 61.8319 52.9408C61.4839 52.6436 61.1582 52.3393 60.8428 52.0081C60.9727 51.2885 61.1586 50.6165 61.395 49.9248C61.4666 49.7132 61.5383 49.5016 61.6121 49.2837C61.6895 49.0562 61.767 48.8288 61.8468 48.5945C62.36 47.0749 62.8655 45.5545 63.3371 44.0215C63.3766 43.8933 63.416 43.7652 63.4566 43.6332C63.6456 43.0174 63.8329 42.4011 64.0188 41.7844C65.3273 37.4912 65.3273 37.4912 66.2645 36.1447C66.7657 36.0341 66.7657 36.0341 67.2685 36.1447C67.6018 36.4749 67.6018 36.4749 67.8834 36.9102C68.2894 37.5276 68.6638 37.9358 69.2765 38.3535C69.1873 38.9335 69.0215 39.2372 68.6866 39.734C68.2855 40.3418 68.0698 40.8702 67.8709 41.5664C67.9752 41.462 68.0795 41.3577 68.187 41.2503C70.4813 38.9559 70.4813 38.9559 70.7982 38.6531C71.6624 37.8162 72.385 36.9245 73.0933 35.9517C73.5633 35.4707 73.83 35.3655 74.4974 35.3415C75.043 35.887 75.0437 36.3865 75.168 37.1299C75.2758 37.6246 75.2758 37.6246 75.903 37.9519C75.7945 38.6693 75.6395 39.1103 75.2002 39.6838C73.4744 42.19 71.0837 46.5264 71.0837 49.5985C72.0051 48.7059 72.8578 47.7596 73.6942 46.7872C73.7925 46.6806 73.8909 46.574 73.9922 46.4641C74.6396 45.6888 74.8549 44.8688 75.0873 43.9007C75.4031 42.586 75.8462 41.6079 76.7062 40.5623C76.8279 40.4109 76.9495 40.2595 77.0749 40.1035C78.0042 38.9918 78.0042 38.9918 78.7143 38.7551C79.0818 38.7313 79.4503 38.7199 79.8187 38.7175C80.1076 38.7132 80.1076 38.7132 80.4023 38.7088C80.9231 38.7551 80.9231 38.7551 81.5255 39.1567C81.8568 38.4941 82.1882 37.8314 82.5295 37.1487C82.2189 37.2439 81.9083 37.3392 81.5883 37.4373C80.34 37.7741 79.0069 38.0827 77.7102 37.9519C77.2799 37.5522 77.1286 37.3005 77.049 36.7188C77.0686 36.3267 77.0882 35.9345 77.1078 35.5423C77.3714 35.4544 77.6349 35.3666 77.8985 35.2787C78.0647 35.2228 78.2309 35.1669 78.4021 35.1093C78.7177 35.005 79.0344 34.9039 79.3528 34.8081C81.3204 34.2026 83.0677 33.2582 84.6874 31.9921C85.2307 31.6739 85.5243 31.6283 86.144 31.727C86.7395 32.1405 86.854 32.5762 86.9848 33.2707C87.0167 33.433 87.0485 33.5953 87.0813 33.7625C87.1033 33.886 87.1253 34.0094 87.148 34.1366C87.4793 34.2029 87.8106 34.2692 88.152 34.3374C87.9512 34.9399 87.9512 34.9399 87.399 35.2536C85.2788 36.6267 84.6744 40.8375 84.1676 43.1452C83.8299 44.778 83.6375 46.3192 83.7343 47.9921C84.6562 46.61 85.203 45.3153 85.6169 43.7124C86.7341 39.6718 88.3611 35.9088 90.16 32.1286C90.2979 31.8361 90.2979 31.8361 90.4385 31.5377C90.7023 30.9801 90.97 30.4245 91.2394 29.8696C91.3181 29.7034 91.3969 29.5372 91.4781 29.3659C91.9363 28.4392 92.3463 27.9479 93.1721 27.3093C93.5382 26.8056 93.8412 26.2676 94.151 25.728C95.0364 24.2342 95.9721 22.7832 96.9497 21.348C97.0746 21.1633 97.1994 20.9787 97.3281 20.7884C98.0321 19.76 98.7674 18.8012 99.5978 17.8716ZM97.7906 22.4901C97.9914 22.8917 97.9914 22.8917 97.9914 22.8917L97.7906 22.4901ZM96.5857 23.0925C96.5857 23.6949 96.5857 23.6949 96.5857 23.6949V23.0925ZM96.1841 23.6949C96.1841 24.2973 96.1841 24.2973 96.1841 24.2973V23.6949ZM95.7825 24.2973C95.9833 24.6989 95.9833 24.6989 95.9833 24.6989L95.7825 24.2973ZM95.3809 24.8997C95.5817 25.3013 95.5817 25.3013 95.5817 25.3013L95.3809 24.8997ZM93.9753 27.3093C94.1761 27.7109 94.1761 27.7109 94.1761 27.7109L93.9753 27.3093ZM79.9018 41.7468C78.3954 43.4008 77.8333 45.6131 77.911 47.7913C78.0436 47.7913 78.1761 47.7913 78.3127 47.7913C79.8172 45.797 80.5985 43.3731 81.1239 40.964C80.6325 40.964 80.254 41.441 79.9018 41.7468Z" fill="white"/>
<path d="M37.3997 14.9471C38.2035 15.6648 38.4322 16.4194 38.5543 17.4697C38.3555 17.4697 38.1567 17.4697 37.9519 17.4697C37.9579 17.6742 37.9638 17.8787 37.97 18.0894C37.8754 22.2108 35.1138 28.1426 32.2455 31.0781C31.7228 31.4846 31.3807 31.5819 30.723 31.526C30.2377 31.2833 29.9271 31.0677 29.5182 30.7227C29.2736 30.5212 29.2736 30.5212 29.024 30.3156C26.8131 28.4192 26.8131 28.4192 26.6309 26.8581C26.7288 25.888 27.0796 25.3807 27.6482 24.6108C27.747 24.4726 27.8457 24.3344 27.9475 24.1921C34.9829 14.4772 34.9829 14.4772 37.3997 14.9471ZM35.718 19.2393C33.3818 21.6052 31.7895 24.7947 31.5262 28.1123C31.8575 28.1786 32.1889 28.2448 32.5302 28.3131C34.8471 25.475 36.2427 22.0951 36.7471 18.4737C36.3344 18.4737 35.9906 18.9754 35.718 19.2393Z" fill="white"/>
<path d="M51.807 38.3533C52.4964 38.2699 52.7663 38.3238 53.3554 38.7133C53.5319 38.872 53.7084 39.0307 53.8903 39.1942C54.07 39.3503 54.2496 39.5063 54.4347 39.6672C54.819 40.1605 54.819 40.1605 54.8214 40.6312C54.5583 41.3219 54.2435 41.9781 53.9029 42.6329C53.8367 42.7625 53.7706 42.892 53.7025 43.0255C53.5403 43.3428 53.3766 43.6594 53.2126 43.9758C52.4671 43.8693 52.0316 43.7104 51.4681 43.2102C51.3514 43.1095 51.2347 43.0089 51.1144 42.9051C50.7671 42.5316 50.5684 42.2501 50.4014 41.767C50.4676 40.9176 50.83 40.2449 51.2171 39.4954C51.3271 39.2808 51.4372 39.0662 51.5505 38.8451C51.6775 38.6017 51.6775 38.6017 51.807 38.3533Z" fill="white"/>
<path d="M20.8834 34.9397C21.0159 34.9397 21.1485 34.9397 21.285 34.9397C21.2029 36.103 20.8992 36.7272 20.1806 37.638C20.097 37.7466 20.0134 37.8552 19.9272 37.967C19.7176 38.2354 19.4981 38.496 19.277 38.755C19.2107 38.755 19.1444 38.755 19.0762 38.755C19.1671 37.6458 19.4372 36.9698 20.0676 36.0567C20.2103 35.8457 20.3529 35.6347 20.4998 35.4174C20.6264 35.2598 20.753 35.1021 20.8834 34.9397Z" fill="white"/>
</g>
<defs>
<clipPath id="clip0_10_43">
<rect width="100" height="73.494" fill="white"/>
</clipPath>
</defs>
</svg>
